<svg width="61" height="65" viewBox="0 0 61 65" fill="none" xmlns="http://www.w3.org/2000/svg">
<rect opacity="0.6" x="1" y="27" width="58" height="38" rx="10" fill="#6EC1D5"/>
<path fill-rule="evenodd" clip-rule="evenodd" d="M51.2003 13.0172C51.3449 12.7584 51.7034 12.7584 51.848 13.0172L52.3843 13.9773C52.402 14.0089 52.4315 14.0313 52.4658 14.0391L53.5074 14.2742C53.7881 14.3376 53.8989 14.6931 53.7075 14.9164L52.9974 15.745C52.9741 15.7723 52.9628 15.8085 52.9663 15.8449L53.0737 16.9504C53.1026 17.2483 52.8125 17.468 52.5497 17.3473L51.5745 16.8992C51.5424 16.8845 51.5059 16.8845 51.4738 16.8992L50.4986 17.3473C50.2358 17.468 49.9457 17.2483 49.9746 16.9504L50.082 15.8449C50.0855 15.8085 50.0742 15.7723 50.0508 15.745L49.3408 14.9164C49.1494 14.6931 49.2602 14.3376 49.5409 14.2742L50.5825 14.0391C50.6167 14.0313 50.6463 14.0089 50.664 13.9773L51.2003 13.0172ZM51.6321 13.1483C51.5839 13.062 51.4644 13.062 51.4162 13.1483L50.8798 14.1084C50.8269 14.2032 50.7382 14.2704 50.6353 14.2937L49.5938 14.5288C49.5002 14.5499 49.4633 14.6685 49.5271 14.7429L50.2371 15.5715C50.3072 15.6532 50.3411 15.762 50.3305 15.8711L50.2232 16.9766C50.2135 17.0759 50.3102 17.1492 50.3978 17.1089L51.373 16.6609C51.4693 16.6166 51.579 16.6166 51.6753 16.6609L52.6505 17.1089C52.7381 17.1492 52.8348 17.0759 52.8251 16.9766L52.7178 15.8711C52.7072 15.762 52.741 15.6532 52.8111 15.5715L53.5212 14.7429C53.585 14.6685 53.5481 14.5499 53.4545 14.5288L52.4129 14.2937C52.3101 14.2704 52.2214 14.2032 52.1684 14.1084L51.6321 13.1483Z" fill="#F0C310"/>
<path opacity="0.796364" fill-rule="evenodd" clip-rule="evenodd" d="M11.4485 4.80152C11.4963 4.96364 11.3514 5.11706 11.1868 5.07866L9.84034 4.76452C9.82024 4.75983 9.7991 4.76381 9.78207 4.77548L8.64165 5.55724C8.50224 5.6528 8.31156 5.56246 8.29722 5.39405L8.1799 4.01639C8.17814 3.99583 8.16783 3.97695 8.15147 3.96436L7.05557 3.12133C6.9216 3.01828 6.94859 2.80902 7.10433 2.74333L8.37831 2.20603C8.39732 2.19801 8.41209 2.18237 8.419 2.16292L8.88212 0.860143C8.93873 0.700885 9.1461 0.661895 9.25669 0.789712L10.1614 1.8353C10.1749 1.85091 10.1943 1.86012 10.215 1.86068L11.5971 1.89855C11.766 1.90318 11.8672 2.08835 11.7798 2.23302L11.065 3.41653C11.0543 3.4342 11.0515 3.45554 11.0574 3.47533L11.4485 4.80152ZM11.2202 4.93548C11.2751 4.94829 11.3234 4.89714 11.3074 4.8431L10.9164 3.51692C10.8988 3.45753 10.9071 3.39352 10.9391 3.34052L11.654 2.15701C11.6831 2.10879 11.6494 2.04706 11.5931 2.04552L10.2109 2.00765C10.149 2.00596 10.0907 1.97832 10.0502 1.9315L9.14551 0.885911C9.10864 0.843305 9.03952 0.856303 9.02065 0.909388L8.55753 2.21217C8.5368 2.27051 8.49249 2.31744 8.43544 2.3415L7.16146 2.8788C7.10955 2.9007 7.10055 2.97045 7.14521 3.0048L8.24111 3.84783C8.29019 3.88558 8.32113 3.94222 8.32639 4.00392L8.44371 5.38157C8.44849 5.43771 8.51205 5.46783 8.55852 5.43597L9.69894 4.65421C9.75001 4.61921 9.81345 4.60728 9.87374 4.62135L11.2202 4.93548Z" fill="#F0C310"/>
<path opacity="0.73011" fill-rule="evenodd" clip-rule="evenodd" d="M15.0264 52.607C15.1905 52.6472 15.2504 52.8495 15.1345 52.9725L14.4525 53.6961C14.4383 53.7111 14.4311 53.7314 14.4327 53.752L14.5065 54.7436C14.5191 54.9122 14.3452 55.0316 14.1924 54.9594L13.2934 54.5344C13.2748 54.5256 13.2532 54.525 13.2341 54.5328L12.3139 54.9095C12.1575 54.9735 11.9901 54.845 12.0116 54.6774L12.138 53.6911C12.1406 53.6706 12.1345 53.65 12.1212 53.6342L11.4786 52.8754C11.3694 52.7464 11.4399 52.5476 11.6059 52.5162L12.583 52.3316C12.6033 52.3278 12.621 52.3156 12.6319 52.2981L13.155 51.4524C13.2439 51.3087 13.4548 51.3143 13.536 51.4625L14.0134 52.3347C14.0233 52.3528 14.0404 52.366 14.0605 52.3709L15.0264 52.607ZM15.0275 52.8717C15.0661 52.8307 15.0462 52.7632 14.9914 52.7498L14.0255 52.5137C13.9654 52.499 13.9142 52.4597 13.8845 52.4053L13.407 51.5331C13.3799 51.4837 13.3096 51.4818 13.28 51.5298L12.7569 52.3754C12.7243 52.4281 12.6711 52.4646 12.6103 52.4761L11.6332 52.6607C11.5779 52.6711 11.5544 52.7374 11.5908 52.7804L12.2334 53.5392C12.2734 53.5865 12.2917 53.6483 12.2838 53.7098L12.1575 54.696C12.1503 54.7519 12.2061 54.7948 12.2582 54.7734L13.1785 54.3967C13.2358 54.3733 13.3003 54.375 13.3563 54.4015L14.2552 54.8264C14.3061 54.8505 14.3641 54.8107 14.3599 54.7545L14.2861 53.7629C14.2815 53.7012 14.303 53.6403 14.3455 53.5953L15.0275 52.8717Z" fill="#FCECB1"/>
<path opacity="0.902331" d="M60.0609 34.916C60.1352 35.0007 60.0905 35.1341 59.9802 35.1569L58.6264 35.4376C58.5859 35.446 58.5509 35.471 58.5298 35.5065L57.8234 36.695C57.7658 36.7919 57.6252 36.7907 57.5693 36.6928L56.884 35.4919C56.8636 35.4561 56.829 35.4305 56.7887 35.4214L55.44 35.1169C55.3301 35.092 55.2878 34.9579 55.3637 34.8745L56.294 33.8517C56.3217 33.8211 56.3354 33.7803 56.3316 33.7392L56.2045 32.3624C56.1941 32.2502 56.3086 32.1686 56.4113 32.2149L57.6716 32.7836C57.7092 32.8006 57.7523 32.801 57.7902 32.7846L59.0603 32.2383C59.1638 32.1938 59.2769 32.2774 59.2645 32.3894L59.1131 33.7638C59.1086 33.8048 59.1215 33.8458 59.1488 33.8769L60.0609 34.916Z" fill="#F0C310"/>
<path opacity="0.370759" d="M1.41142 21.6022C1.44538 21.4948 1.58262 21.4639 1.65931 21.5465L2.21938 22.1493C2.24747 22.1795 2.28699 22.1965 2.32826 22.1962L3.15106 22.1896C3.26373 22.1887 3.3355 22.3097 3.28069 22.4081L2.88047 23.1271C2.86039 23.1631 2.8564 23.206 2.86947 23.2451L3.12999 24.0256C3.16566 24.1325 3.07278 24.2381 2.96221 24.2164L2.1548 24.058C2.11429 24.05 2.07231 24.0595 2.03912 24.084L1.37733 24.5729C1.2867 24.6399 1.15753 24.5842 1.144 24.4723L1.04522 23.6555C1.04026 23.6145 1.01831 23.5775 0.984721 23.5535L0.315198 23.0752C0.22351 23.0097 0.23656 22.8696 0.338769 22.8222L1.08513 22.4758C1.12257 22.4584 1.15098 22.4261 1.16342 22.3868L1.41142 21.6022Z" fill="#F0C310"/>
<path opacity="0.806242" d="M4.52187 42.5792C4.46516 42.6765 4.3245 42.6765 4.26778 42.5792L3.57186 41.3844C3.55108 41.3488 3.51627 41.3235 3.47593 41.3147L2.1246 41.0222C2.01447 40.9983 1.971 40.8645 2.04607 40.7805L2.96729 39.7495C2.99479 39.7187 3.00808 39.6778 3.00392 39.6367L2.8646 38.2611C2.85325 38.149 2.96705 38.0663 3.07016 38.1117L4.33542 38.6692C4.37319 38.6859 4.41622 38.6859 4.45399 38.6692L5.71922 38.1116C5.82233 38.0662 5.93614 38.1489 5.92479 38.261L5.78555 39.6366C5.78139 39.6777 5.79469 39.7186 5.8222 39.7494L6.74347 40.7804C6.81855 40.8644 6.77509 40.9982 6.66496 41.022L5.31364 41.3147C5.2733 41.3234 5.23849 41.3487 5.21772 41.3844L4.52187 42.5792Z" fill="#F0C310"/>
<path opacity="0.547916" d="M35.3305 4.78683C35.2187 4.80066 35.1335 4.68872 35.1767 4.58462L35.7061 3.30735C35.7219 3.26921 35.7209 3.2262 35.7034 3.1888L35.118 1.93621C35.0703 1.83413 35.1504 1.71852 35.2628 1.72739L36.6411 1.83618C36.6823 1.83943 36.7229 1.82523 36.7531 1.79705L37.7634 0.853209C37.8458 0.77629 37.9805 0.816785 38.0068 0.926358L38.3292 2.27087C38.3389 2.31101 38.3649 2.34525 38.401 2.36523L39.6109 3.0345C39.7095 3.08904 39.7126 3.22967 39.6165 3.28852L38.4375 4.01069C38.4023 4.03225 38.3778 4.06761 38.3699 4.10814L38.1073 5.46561C38.0859 5.57624 37.9531 5.62266 37.8674 5.54946L36.8163 4.65126C36.7849 4.62445 36.7437 4.61206 36.7027 4.61713L35.3305 4.78683Z" fill="#F0C310"/>
<path opacity="0.392959" d="M46.6005 52.4977C46.5517 52.5993 46.4115 52.6105 46.3472 52.5179L45.5585 51.3823C45.5349 51.3484 45.4982 51.326 45.4573 51.3205L44.087 51.1363C43.9753 51.1213 43.9213 50.9914 43.9895 50.9017L44.8258 49.8006C44.8507 49.7678 44.8607 49.7259 44.8533 49.6853L44.605 48.3251C44.5848 48.2143 44.6916 48.1228 44.798 48.1599L46.1036 48.615C46.1426 48.6286 46.1855 48.6252 46.2218 48.6056L47.4387 47.9491C47.5379 47.8956 47.6579 47.969 47.6555 48.0816L47.6261 49.4639C47.6252 49.5052 47.6418 49.5449 47.6716 49.5734L48.672 50.5279C48.7535 50.6057 48.7208 50.7425 48.613 50.775L47.2892 51.1742C47.2497 51.1862 47.217 51.2141 47.1991 51.2514L46.6005 52.4977Z" fill="#FCECB1"/>
<g clip-path="url(#clip0)">
<path d="M43.2332 18.1525C43.2325 18.1519 43.2321 18.1515 43.2315 18.151L37.4015 16.1449L27.2244 18.1511V22.5905L43.8959 25.3409L46.8688 22.5905C45.9023 20.9204 44.6708 19.4215 43.2332 18.1525V18.1525Z" fill="#E7A52E"/>
<path d="M43.2317 44.7873L35.6223 43.3395L27.2244 44.7873V49.2267H31.4876C35.9462 49.2267 40.0206 47.5834 43.1388 44.8696" fill="#E7A52E"/>
<path d="M27.2244 40.3479L39.2306 42.0859L46.8689 40.3478C47.6638 38.9738 48.2803 37.4835 48.6857 35.9085L39.7537 33.3334L27.2244 35.9085V40.3479Z" fill="#E7A52E"/>
<path d="M48.6857 27.0298L43.2316 23.7722L27.2244 27.0298V31.4692L44.7022 34.625L49.2451 31.4692C49.2451 29.936 49.0511 28.4488 48.6857 27.0298V27.0298Z" fill="#E7A52E"/>
<path d="M46.7691 31.4692C46.7691 21.662 38.8188 13.7117 29.0116 13.7117C28.4083 13.7117 27.8122 13.742 27.2244 13.8009V49.2268H29.0116C38.8187 49.2267 46.7691 41.2764 46.7691 31.4692Z" fill="#E28424"/>
<path d="M43.2317 18.1511C40.1014 15.3886 35.9907 13.7117 31.4876 13.7117H27.2244V18.1511H43.2317Z" fill="#C85929"/>
<path d="M27.2244 27.0298H48.6857C48.2803 25.4547 47.6638 23.9645 46.8689 22.5904H27.2244V27.0298Z" fill="#C85929"/>
<path d="M27.2244 35.9086H48.6857C49.0509 34.4896 49.2451 33.0021 49.2451 31.4692H27.2244V35.9086Z" fill="#C85929"/>
<path d="M27.2244 44.7873H43.2316C44.6704 43.5176 45.9022 42.0192 46.869 40.3479H27.2244V44.7873Z" fill="#C85929"/>
<path d="M44.3929 40.348H27.2244V44.7874H40.7556C42.1943 43.5177 43.4261 42.0192 44.3929 40.348Z" fill="#B94029"/>
<path d="M46.7691 31.4692H27.2244V35.9086H46.2096C46.5748 34.4896 46.7691 33.0021 46.7691 31.4692Z" fill="#B94029"/>
<path d="M44.3929 22.5904H27.2244V27.0298H46.2097C45.8043 25.4547 45.1878 23.9645 44.3929 22.5904Z" fill="#B94029"/>
<path d="M29.0116 13.7117C28.4083 13.7117 27.8122 13.742 27.2244 13.8009V18.1511H40.7556C37.6254 15.3886 33.5146 13.7117 29.0116 13.7117V13.7117Z" fill="#B94029"/>
<path d="M27.2244 49.2267C37.0316 49.2267 44.9819 41.2764 44.9819 31.4692C44.9819 21.662 37.0316 13.7117 27.2244 13.7117C17.4172 13.7117 9.46689 21.662 9.46689 31.4692C9.46689 41.2764 17.4172 49.2267 27.2244 49.2267Z" fill="#F6E266"/>
<path d="M15.4379 44.7498C16.3356 45.547 17.314 46.2553 18.3604 46.8593L23.2315 14.1625C22.0449 14.4351 20.9041 14.8273 19.8216 15.3245L15.4379 44.7498Z" fill="#FBF4AF"/>
<path d="M27.2243 13.7117C26.9016 13.7117 26.581 13.7208 26.2625 13.7379C35.6225 14.2375 43.0582 21.9847 43.0582 31.4692C43.0582 40.9537 35.6224 48.7009 26.2625 49.2006C26.581 49.2176 26.9016 49.2268 27.2243 49.2268C37.0316 49.2268 44.9819 41.2765 44.9819 31.4693C44.9819 21.662 37.0316 13.7117 27.2243 13.7117V13.7117Z" fill="#EAB14D"/>
<path d="M27.2246 45.7705C35.123 45.7705 41.5259 39.3676 41.5259 31.4692C41.5259 23.5708 35.123 17.1679 27.2246 17.1679C19.3263 17.1679 12.9233 23.5708 12.9233 31.4692C12.9233 39.3676 19.3263 45.7705 27.2246 45.7705Z" fill="#E7A52E"/>
<path d="M27.2243 17.1679C26.8666 17.1679 26.512 17.1814 26.1609 17.2073C33.5627 17.7514 39.3989 23.9286 39.3989 31.4692C39.3989 39.0098 33.5627 45.187 26.1609 45.7311C26.5121 45.7569 26.8666 45.7705 27.2243 45.7705C35.1227 45.7705 41.5256 39.3676 41.5256 31.4692C41.5256 23.5708 35.1227 17.1679 27.2243 17.1679Z" fill="#E28424"/>
<path d="M16.0812 40.4326C16.9002 41.4494 17.8549 42.3522 18.9188 43.1125L22.6737 17.9075C21.4222 18.3273 20.2481 18.9156 19.178 19.6452L16.0812 40.4326Z" fill="#EAB14D"/>
<path d="M27.661 23.5906L30.3607 27.7382C30.4307 27.8458 30.538 27.9237 30.662 27.957L35.4408 29.2429C35.8046 29.3408 35.9474 29.7805 35.7106 30.0734L32.6003 33.9227C32.5197 34.0225 32.4786 34.1486 32.4852 34.2768L32.739 39.2191C32.7583 39.5953 32.3843 39.867 32.0325 39.7324L27.4106 37.9638C27.2907 37.918 27.1581 37.918 27.0382 37.9638L22.4162 39.7324C22.0644 39.8671 21.6904 39.5953 21.7097 39.2191L21.9635 34.2768C21.9701 34.1486 21.9291 34.0225 21.8484 33.9227L18.7381 30.0734C18.5014 29.7805 18.6442 29.3408 19.0079 29.2429L23.7868 27.957C23.9107 27.9237 24.018 27.8457 24.0881 27.7382L26.7878 23.5906C26.9932 23.2749 27.4555 23.2749 27.661 23.5906V23.5906Z" fill="#C85929"/>
<path d="M35.4407 29.243L30.6618 27.9571C30.5379 27.9237 30.4306 27.8458 30.3605 27.7383L30.1332 27.389C30.1104 30.0243 29.7301 34.2673 27.8633 38.1372L32.0324 39.7326C32.3842 39.8672 32.7582 39.5954 32.7388 39.2192L32.4851 34.277C32.4785 34.1488 32.5195 34.0227 32.6002 33.9228L35.7105 30.0736C35.9472 29.7805 35.8043 29.3409 35.4407 29.243V29.243Z" fill="#B94029"/>
</g>
<defs>
<clipPath id="clip0">
<rect width="39.7783" height="39.7783" fill="white" transform="translate(9.46689 11.58)"/>
</clipPath>
</defs>
</svg>
