<svg width="27" height="27" viewBox="0 0 27 27" fill="none" xmlns="http://www.w3.org/2000/svg">
<path d="M23.4451 5.18635C22.8705 4.61148 22.1882 4.15545 21.4373 3.84432C20.6865 3.53319 19.8816 3.37305 19.0688 3.37305C18.256 3.37305 17.4512 3.53319 16.7003 3.84432C15.9494 4.15545 15.2672 4.61148 14.6926 5.18635L13.5001 6.37885L12.3076 5.18635C11.1469 4.0257 9.57274 3.37365 7.93132 3.37365C6.28991 3.37365 4.71573 4.0257 3.55507 5.18635C2.39442 6.347 1.74237 7.92119 1.74237 9.5626C1.74237 11.204 2.39442 12.7782 3.55507 13.9389L4.74757 15.1314L13.5001 23.8838L22.2526 15.1314L23.4451 13.9389C24.0199 13.3643 24.476 12.682 24.7871 11.9311C25.0982 11.1802 25.2584 10.3754 25.2584 9.5626C25.2584 8.7498 25.0982 7.94497 24.7871 7.19408C24.476 6.44318 24.0199 5.76095 23.4451 5.18635V5.18635Z" stroke="#C11345" stroke-width="2.5" stroke-linecap="round" stroke-linejoin="round"/>
</svg>
