<svg width="46" height="45" viewBox="0 0 46 45" fill="none" xmlns="http://www.w3.org/2000/svg">
<rect width="46" height="45" rx="10" fill="#D99F1A"/>
<g clip-path="url(#clip0)">
<path d="M16.4335 22.9043L16.4335 22.9043V22.9083C16.4335 24.967 17.2765 26.844 18.9629 28.1573C19.6703 28.7775 20.1002 29.563 20.1002 30.4249V32.3499C20.1002 33.5267 20.8947 34.1499 21.6252 34.1499H24.3752C25.1913 34.1499 25.9002 33.4411 25.9002 32.6249V30.5166C25.9002 29.6461 26.3372 28.6818 27.1251 28.0687C28.7232 26.8464 29.5668 24.9676 29.5668 22.9999C29.5668 21.2162 28.8161 19.5287 27.5979 18.3105C26.3759 17.0885 24.6867 16.4333 22.9085 16.4333V16.4332L22.9044 16.4333C19.4346 16.5271 16.5274 19.3398 16.4335 22.9043ZM19.7035 27.1922L19.7036 27.192L19.6972 27.1873C18.3666 26.2115 17.6508 24.6105 17.6502 22.9106C17.7406 20.0565 20.1514 17.6499 23.0002 17.6499C24.4291 17.6499 25.7653 18.1855 26.7441 19.1643C27.8159 20.2361 28.3502 21.573 28.3502 22.9999C28.3502 24.6057 27.6366 26.1198 26.3908 27.0986L26.3908 27.0986L26.3885 27.1005C25.3491 27.951 24.6835 29.2754 24.6835 30.5166V32.6249C24.6835 32.7283 24.6497 32.8029 24.6014 32.8511C24.5531 32.8994 24.4786 32.9333 24.3752 32.9333H21.6252C21.5432 32.9333 21.4923 32.9097 21.457 32.8798C21.419 32.8478 21.3884 32.7992 21.3654 32.7349C21.318 32.6023 21.3168 32.4441 21.3168 32.3499V30.4249C21.3168 29.1837 20.7429 28.0426 19.7035 27.1922Z" fill="white" stroke="white" stroke-width="0.3"/>
<path d="M20.7083 31.4H25.2917C25.4633 31.4 25.6179 31.3422 25.73 31.2301C25.8421 31.1179 25.9 30.9633 25.9 30.7917C25.9 30.6201 25.8421 30.4655 25.73 30.3533C25.6179 30.2412 25.4633 30.1834 25.2917 30.1834H20.7083C20.5367 30.1834 20.3821 30.2412 20.27 30.3533C20.1579 30.4655 20.1 30.6201 20.1 30.7917C20.1 30.9633 20.1579 31.1179 20.27 31.2301C20.3821 31.3422 20.5367 31.4 20.7083 31.4Z" fill="white" stroke="white" stroke-width="0.3"/>
<path d="M22.3915 14.2917C22.3915 14.4633 22.4494 14.6179 22.5615 14.73C22.6736 14.8421 22.8282 14.9 22.9998 14.9C23.1714 14.9 23.3261 14.8421 23.4382 14.73C23.5503 14.6179 23.6082 14.4633 23.6082 14.2917V12.4583C23.6082 12.2867 23.5503 12.1321 23.4382 12.02C23.3261 11.9079 23.1714 11.85 22.9998 11.85C22.8282 11.85 22.6736 11.9079 22.5615 12.02C22.4494 12.1321 22.3915 12.2867 22.3915 12.4583V14.2917Z" fill="white" stroke="white" stroke-width="0.3"/>
<path d="M29.4169 17.2251L29.4839 17.3593L29.5057 17.3484L29.5229 17.3312L30.8063 16.0478C31.0482 15.8059 31.0482 15.4359 30.8063 15.194C30.5643 14.9521 30.1944 14.9521 29.9525 15.194L28.6691 16.4774L28.7742 16.5824L28.6691 16.4774C28.4272 16.7193 28.4272 17.0893 28.6691 17.3312C28.7482 17.4102 28.8547 17.4401 28.9339 17.4533C29.0149 17.4668 29.0939 17.4668 29.1393 17.4668H29.1419C29.1857 17.4668 29.2303 17.4565 29.2647 17.4467C29.3014 17.4362 29.3381 17.4228 29.3694 17.4102C29.4011 17.3975 29.4294 17.385 29.4496 17.3756L29.474 17.3641L29.481 17.3607L29.483 17.3597L29.4836 17.3594L29.4838 17.3593L29.4839 17.3593L29.4839 17.3593L29.4169 17.2251Z" fill="white" stroke="white" stroke-width="0.3"/>
<path d="M31.7083 23.6083H33.5417C33.7133 23.6083 33.8679 23.5504 33.98 23.4383C34.0921 23.3262 34.15 23.1715 34.15 23C34.15 22.8284 34.0921 22.6737 33.98 22.5616C33.8679 22.4495 33.7133 22.3916 33.5417 22.3916H31.7083C31.5367 22.3916 31.3821 22.4495 31.27 22.5616C31.1579 22.6737 31.1 22.8284 31.1 23C31.1 23.1715 31.1579 23.3262 31.27 23.4383C31.3821 23.5504 31.5367 23.6083 31.7083 23.6083Z" fill="white" stroke="white" stroke-width="0.3"/>
<path d="M29.9525 30.8977C30.0315 30.9768 30.138 31.0066 30.2172 31.0198C30.2983 31.0333 30.3773 31.0333 30.4227 31.0333H30.4252C30.43 31.0333 30.4349 31.0333 30.4398 31.0333C30.5182 31.0334 30.6035 31.0334 30.6678 31.0174C30.7056 31.0079 30.7556 30.9887 30.7951 30.9443C30.8185 30.918 30.8328 30.8891 30.841 30.8602C31.0476 30.6188 31.036 30.2736 30.8063 30.0439L29.5229 28.7606C29.281 28.5186 28.911 28.5186 28.6691 28.7606C28.4272 29.0025 28.4272 29.3724 28.6691 29.6144L29.9525 30.8977Z" fill="white" stroke="white" stroke-width="0.3"/>
<path d="M15.1022 30.8977C15.1813 30.9768 15.2878 31.0066 15.367 31.0198C15.4481 31.0333 15.527 31.0333 15.5724 31.0333H15.575C15.5767 31.0333 15.5785 31.0333 15.5803 31.0333C15.6744 31.0333 15.8203 31.0334 15.956 30.8977L17.2394 29.6144C17.4813 29.3724 17.4813 29.0025 17.2394 28.7606C16.9975 28.5186 16.6275 28.5186 16.3856 28.7606L15.1022 30.0439C14.8603 30.2858 14.8603 30.6558 15.1022 30.8977Z" fill="white" stroke="white" stroke-width="0.3"/>
<path d="M12.4583 23.6083H14.2917C14.4633 23.6083 14.6179 23.5504 14.73 23.4383C14.8421 23.3262 14.9 23.1715 14.9 23C14.9 22.8284 14.8421 22.6737 14.73 22.5616C14.6179 22.4495 14.4633 22.3916 14.2917 22.3916H12.4583C12.2867 22.3916 12.1321 22.4495 12.02 22.5616C11.9079 22.6737 11.85 22.8284 11.85 23C11.85 23.1715 11.9079 23.3262 12.02 23.4383C12.1321 23.5504 12.2867 23.6083 12.4583 23.6083Z" fill="white" stroke="white" stroke-width="0.3"/>
<path d="M16.382 17.3274L16.3819 17.3275L16.3856 17.3312C16.4647 17.4102 16.5712 17.4401 16.6503 17.4533C16.7314 17.4668 16.8104 17.4668 16.8558 17.4668H16.8583C16.9531 17.4668 17.0314 17.4203 17.0858 17.3795C17.1403 17.3386 17.1925 17.2864 17.2357 17.2432L17.2394 17.2395C17.4813 16.9976 17.4813 16.6276 17.2394 16.3857L15.956 15.1024C15.7141 14.8604 15.3441 14.8604 15.1022 15.1024C14.861 15.3436 14.8603 15.7123 15.1003 15.9542L16.382 17.3274Z" fill="white" stroke="white" stroke-width="0.3"/>
<path d="M26.0582 23C26.0582 23.1716 26.116 23.3262 26.2281 23.4384C26.3403 23.5505 26.4949 23.6083 26.6665 23.6083C26.8381 23.6083 26.9927 23.5505 27.1049 23.4384C27.217 23.3262 27.2748 23.1716 27.2748 23C27.2748 20.6255 25.3743 18.725 22.9998 18.725C22.8282 18.725 22.6736 18.7829 22.5615 18.895C22.4494 19.0071 22.3915 19.1617 22.3915 19.3333C22.3915 19.5049 22.4494 19.6596 22.5615 19.7717C22.6736 19.8838 22.8282 19.9417 22.9998 19.9417C24.6587 19.9417 26.0582 21.3412 26.0582 23Z" fill="white" stroke="white" stroke-width="0.3"/>
</g>
<defs>
<clipPath id="clip0">
<rect width="22" height="22" fill="white" transform="translate(12 12)"/>
</clipPath>
</defs>
</svg>
