<svg width="46" height="45" viewBox="0 0 46 45" fill="none" xmlns="http://www.w3.org/2000/svg">
<rect width="46" height="45" rx="10" fill="#D99F1A"/>
<path d="M23.0117 28.6859C23.3403 28.6859 23.6 28.4101 23.6 28.0781C23.6 27.7461 23.3403 27.4703 23.0117 27.4703C22.6831 27.4703 22.4234 27.7461 22.4234 28.0781C22.4234 28.4101 22.6831 28.6859 23.0117 28.6859Z" fill="white" stroke="white" stroke-width="0.2"/>
<path d="M23.3265 21.576H19.1055C18.343 21.576 17.7406 22.2247 17.7406 23C17.7406 25.3544 18.8057 27.59 20.6318 29.0149C21.2813 29.5215 21.6469 30.3089 21.6469 31.125V31.5328H28.2828V31.125C28.2828 31.0826 28.2917 31.0325 28.3042 30.9787C28.3171 30.9236 28.3355 30.8578 28.3578 30.7818C28.3731 30.7299 28.3902 30.6732 28.409 30.6111C28.4459 30.4888 28.4893 30.3453 28.5373 30.1762C28.6814 29.669 28.8648 28.9414 29.0214 27.9396C29.1793 26.9258 29.2594 25.8916 29.2594 24.8662V24.4187C28.9935 24.5498 28.6963 24.6234 28.3828 24.6234C27.5296 24.6234 26.7998 24.0811 26.4896 23.3156C26.1854 23.5012 25.8311 23.6078 25.4531 23.6078C24.8833 23.6078 24.3683 23.3654 23.9968 22.9767C23.6554 23.514 23.1805 23.9522 22.6217 24.2414C23.0819 24.6806 23.4136 25.2676 23.542 25.9386C23.542 25.9386 23.542 25.9386 23.542 25.9386L23.4437 25.9574C23.4964 26.2325 23.3245 26.4999 23.0602 26.5545L23.3265 21.576ZM23.3265 21.576C23.066 22.6303 22.1454 23.4078 21.0586 23.4078H20.082C19.7534 23.4078 19.4938 23.6836 19.4938 24.0156C19.4938 24.3476 19.7534 24.6234 20.082 24.6234H20.5703C21.4489 24.6234 22.2154 25.2734 22.3876 26.1744L22.3876 26.1744C22.4496 26.4984 22.7555 26.7197 23.0804 26.6524L23.3265 21.576ZM19.9229 29.9851L19.9229 29.9851C20.2609 30.2488 20.4703 30.6675 20.4703 31.125V35.4922C20.4703 35.8242 20.73 36.1 21.0586 36.1H28.8711C29.1997 36.1 29.4594 35.8242 29.4594 35.4922V31.2221C29.7764 30.2166 30.0195 29.1779 30.1828 28.133L30.1828 28.133C30.3509 27.0554 30.4359 25.9562 30.4359 24.8662V24.8623V24.8583V24.8543V24.8501V24.8459V24.8416V24.8372V24.8327V24.8281V24.8235V24.8188V24.8139V24.809V24.8041V24.799V24.7939V24.7887V24.7834V24.778V24.7725V24.767V24.7614V24.7557V24.7499V24.744V24.7381V24.7321V24.726V24.7199V24.7136V24.7073V24.7009V24.6945V24.6879V24.6813V24.6746V24.6679V24.661V24.6541V24.6472V24.6401V24.633V24.6258V24.6185V24.6112V24.6038V24.5963V24.5887V24.5811V24.5734V24.5657V24.5579V24.55V24.542V24.534V24.5259V24.5177V24.5095V24.5012V24.4928V24.4844V24.4759V24.4673V24.4587V24.45V24.4413V24.4324V24.4236V24.4146V24.4056V24.3965V24.3874V24.3782V24.369V24.3597V24.3503V24.3408V24.3313V24.3218V24.3122V24.3025V24.2928V24.283V24.2731V24.2632V24.2533V24.2432V24.2332V24.223V24.2128V24.2026V24.1923V24.1819V24.1715V24.161V24.1505V24.1399V24.1293V24.1186V24.1079V24.0971V24.0863V24.0754V24.0645V24.0535V24.0424V24.0313V24.0202V24.009V23.9978V23.9865V23.9751V23.9637V23.9523V23.9408V23.9293V23.9177V23.9061V23.8944V23.8827V23.8709V23.8591V23.8473V23.8354V23.8235V23.8115V23.7994V23.7874V23.7753V23.7631V23.7509V23.7387V23.7264V23.7141V23.7017V23.6893V23.6768V23.6643V23.6518V23.6393V23.6267V23.614V23.6013V23.5886V23.5759V23.5631V23.5502V23.5374V23.5245V23.5115V23.4985V23.4855V23.4725V23.4594V23.4463V23.4332V23.42V23.4068V23.3935V23.3802V23.3669V23.3536V23.3402V23.3268V23.3134V23.2999V23.2864V23.2729V23.2593V23.2457V23.2321V23.2185V23.2048V23.1911V23.1774V23.1636V23.1498V23.136V23.1222V23.1083V23.0944V23.0805V23.0666V23.0526V23.0386V23.0246V23.0106V22.9965V22.9825V22.9684V22.9542V22.9401V22.9259V22.9117V22.8975V22.8833V22.8691V22.8548V22.8405V22.8262V22.8119V22.7975V22.7832V22.7688V22.7544V22.74V22.7255V22.7111V22.6966V22.6821V22.6676V22.6531V22.6386V22.6241V22.6095V22.5949V22.5804V22.5658V22.5512V22.5365V22.5219V22.5073V22.4926V22.4779V22.4633V22.4486V22.4339V22.4192V22.4045V22.3897V22.375V22.3602V22.3455V22.3307V22.316V22.3012V22.2864V22.2716V22.2568V22.242V22.2272V22.2124V22.1976V22.1828V22.168V22.1531V22.1383V22.1235V22.1087V22.0938V22.079V22.0641V22.0493V22.0344V22.0196V22.0048V21.9899V21.9751V21.9602V21.9454V21.9305V21.9157V21.9009V21.886V21.8712V21.8564V21.8415V21.8267V21.8119V21.7971V21.7823V21.7675V21.7527V21.7379V21.7231V21.7083V21.6935V21.6788V21.664V21.6492V21.6345V21.6198V21.605V21.5903V21.5756V21.5609V21.5462V21.5315V21.5169V21.5022V21.4876V21.4729V21.4583V21.4437V21.4291V21.4145V21.3999V21.3854V21.3708V21.3563V21.3418V21.3273V21.3128V21.2983V21.2839V21.2695V21.255V21.2406V21.2262V21.2119V21.1975V21.1832V21.1689V21.1546V21.1403V21.1261V21.1118V21.0976V21.0834V21.0693V21.0551V21.041V21.0269V21.0128V20.9987V20.9847V20.9707V20.9567V20.9427V20.9288V20.9149V20.901V20.8871V20.8733V20.8594V20.8457V20.8319V20.8182V20.8045V20.7908V20.7771V20.7635V20.7499V20.7363V20.7228V20.7093V20.6958V20.6824V20.669V20.6556V20.6422V20.6289V20.6156V20.6024V20.5891V20.576V20.5628V20.5497V20.5366V20.5235V20.5105V20.4975V20.4846V20.4717V20.4588V20.446V20.4332V20.4204V20.4077V20.395V20.3823V20.3697V20.3571V20.3446V20.3321V20.3196V20.3072V20.2949V20.2825V20.2702V20.258V20.2458V20.2336V20.2215V20.2094V20.1974V20.1854V20.1734V20.1615V20.1496V20.1378V20.126V20.1143V20.1026V20.091V20.0794V20.0679V20.0564V20.0449V20.0335V20.0222V20.0109V19.9996V19.9884V19.9773V19.9662V19.9551V19.9441V19.9332V19.9223V19.9114V19.9006V19.8899V19.8792V19.8685V19.8579V19.8474V19.8369V19.8265V19.8161V19.8058V19.7956V19.7854V19.7752V19.7651V19.7551V19.7451V19.7352V19.7253V19.7155V19.7058V19.6961V19.6864V19.6769V19.6674V19.6579V19.6485V19.6392V19.6299V19.6207V19.6116V19.6025V19.5935V19.5845V19.5756V19.5668V19.558V19.5493V19.5407V19.5321V19.5236V19.5151V19.5067V19.4984V19.4902V19.482V19.4739V19.4658V19.4579V19.45V19.4421V19.4343V19.4266V19.419V19.4114V19.4039V19.3965V19.3892V19.3819V19.3747V19.3675V19.3604V19.3535V19.3465V19.3397V19.3329V19.3262V19.3196V19.313V19.3065V19.3001V19.2938V19.2875V19.2814V19.2753V19.2692V19.2633V19.2574V19.2516V19.2459V19.2403V19.2347V19.2292V19.2238V19.2185V19.2133V19.2081V19.203V19.1981V19.1931V19.1883V19.1836V19.1789V19.1743V19.1698V19.1654V19.161V19.1568V19.1526V19.1485V19.1445V19.1406C30.4359 17.967 29.5209 17.0094 28.3828 17.0094C28.0053 17.0094 27.6513 17.1158 27.3472 17.3009C27.0403 16.5412 26.3142 15.9937 25.4531 15.9937C24.8793 15.9937 24.361 16.2396 23.9889 16.6332C23.5992 16.2201 23.0771 15.9937 22.5234 15.9937C21.9494 15.9937 21.4307 16.2399 21.0586 16.6338C20.6865 16.2399 20.1678 15.9937 19.5938 15.9937C18.458 15.9937 17.5406 16.9535 17.5406 18.125V20.9216C16.9307 21.4182 16.5641 22.1853 16.5641 23C16.5641 25.7359 17.803 28.331 19.9229 29.9851ZM28.3828 18.225C28.8633 18.225 29.2594 18.6311 29.2594 19.1406V22.4922C29.2594 23.0007 28.8624 23.4078 28.3828 23.4078C27.9033 23.4078 27.5063 23.0007 27.5063 22.4922V22.4871V22.482V22.4769V22.4718V22.4667V22.4615V22.4563V22.4511V22.4459V22.4407V22.4354V22.4301V22.4249V22.4196V22.4142V22.4089V22.4035V22.3981V22.3927V22.3873V22.3819V22.3764V22.371V22.3655V22.36V22.3545V22.3489V22.3434V22.3378V22.3322V22.3266V22.321V22.3154V22.3097V22.304V22.2984V22.2927V22.2869V22.2812V22.2754V22.2697V22.2639V22.2581V22.2523V22.2465V22.2406V22.2347V22.2289V22.223V22.2171V22.2111V22.2052V22.1993V22.1933V22.1873V22.1813V22.1753V22.1693V22.1632V22.1572V22.1511V22.145V22.1389V22.1328V22.1267V22.1205V22.1144V22.1082V22.102V22.0958V22.0896V22.0834V22.0772V22.0709V22.0646V22.0584V22.0521V22.0458V22.0395V22.0331V22.0268V22.0204V22.0141V22.0077V22.0013V21.9949V21.9885V21.982V21.9756V21.9691V21.9627V21.9562V21.9497V21.9432V21.9367V21.9301V21.9236V21.9171V21.9105V21.9039V21.8973V21.8907V21.8841V21.8775V21.8709V21.8643V21.8576V21.8509V21.8443V21.8376V21.8309V21.8242V21.8175V21.8108V21.804V21.7973V21.7905V21.7838V21.777V21.7702V21.7634V21.7566V21.7498V21.743V21.7361V21.7293V21.7224V21.7156V21.7087V21.7018V21.6949V21.6881V21.6811V21.6742V21.6673V21.6604V21.6534V21.6465V21.6395V21.6326V21.6256V21.6186V21.6116V21.6046V21.5976V21.5906V21.5836V21.5766V21.5695V21.5625V21.5554V21.5484V21.5413V21.5342V21.5272V21.5201V21.513V21.5059V21.4988V21.4917V21.4845V21.4774V21.4703V21.4631V21.456V21.4488V21.4417V21.4345V21.4273V21.4202V21.413V21.4058V21.3986V21.3914V21.3842V21.377V21.3698V21.3625V21.3553V21.3481V21.3408V21.3336V21.3264V21.3191V21.3119V21.3046V21.2973V21.2901V21.2828V21.2755V21.2682V21.2609V21.2536V21.2463V21.239V21.2317V21.2244V21.2171V21.2098V21.2025V21.1952V21.1878V21.1805V21.1732V21.1658V21.1585V21.1512V21.1438V21.1365V21.1291V21.1218V21.1144V21.107V21.0997V21.0923V21.0849V21.0776V21.0702V21.0628V21.0555V21.0481V21.0407V21.0333V21.0259V21.0186V21.0112V21.0038V20.9964V20.989V20.9816V20.9742V20.9668V20.9594V20.952V20.9446V20.9372V20.9298V20.9225V20.9151V20.9077V20.9003V20.8929V20.8855V20.8781V20.8706V20.8632V20.8558V20.8484V20.841V20.8336V20.8262V20.8188V20.8114V20.804V20.7967V20.7893V20.7819V20.7745V20.7671V20.7597V20.7523V20.7449V20.7375V20.7301V20.7227V20.7153V20.708V20.7006V20.6932V20.6858V20.6784V20.6711V20.6637V20.6563V20.649V20.6416V20.6342V20.6269V20.6195V20.6122V20.6048V20.5975V20.5901V20.5828V20.5754V20.5681V20.5607V20.5534V20.5461V20.5388V20.5314V20.5241V20.5168V20.5095V20.5022V20.4949V20.4876V20.4803V20.473V20.4657V20.4584V20.4512V20.4439V20.4366V20.4293V20.4221V20.4148V20.4076V20.4003V20.3931V20.3859V20.3786V20.3714V20.3642V20.357V20.3498V20.3426V20.3354V20.3282V20.321V20.3138V20.3066V20.2995V20.2923V20.2851V20.278V20.2708V20.2637V20.2566V20.2494V20.2423V20.2352V20.2281V20.221V20.2139V20.2068V20.1998V20.1927V20.1856V20.1786V20.1715V20.1645V20.1574V20.1504V20.1434V20.1364V20.1294V20.1224V20.1154V20.1084V20.1015V20.0945V20.0875V20.0806V20.0737V20.0667V20.0598V20.0529V20.046V20.0391V20.0322V20.0253V20.0185V20.0116V20.0048V19.9979V19.9911V19.9843V19.9775V19.9707V19.9639V19.9571V19.9503V19.9436V19.9368V19.9301V19.9233V19.9166V19.9099V19.9032V19.8965V19.8898V19.8832V19.8765V19.8699V19.8632V19.8566V19.85V19.8434V19.8368V19.8302V19.8236V19.8171V19.8105V19.804V19.7975V19.791V19.7845V19.778V19.7715V19.765V19.7586V19.7521V19.7457V19.7393V19.7329V19.7265V19.7201V19.7138V19.7074V19.7011V19.6947V19.6884V19.6821V19.6758V19.6696V19.6633V19.6571V19.6508V19.6446V19.6384V19.6322V19.626V19.6199V19.6137V19.6076V19.6015V19.5953V19.5893V19.5832V19.5771V19.5711V19.565V19.559V19.553V19.547V19.541V19.535V19.5291V19.5232V19.5172V19.5113V19.5055V19.4996V19.4937V19.4879V19.4821V19.4762V19.4705V19.4647V19.4589V19.4532V19.4474V19.4417V19.436V19.4303V19.4247V19.419V19.4134V19.4078V19.4022V19.3966V19.391V19.3855V19.38V19.3744V19.3689V19.3635V19.358V19.3526V19.3471V19.3417V19.3363V19.331V19.3256V19.3203V19.3149V19.3096V19.3043V19.2991V19.2938V19.2886V19.2834V19.2782V19.273V19.2679V19.2627V19.2576V19.2525V19.2474V19.2424V19.2373V19.2323V19.2273V19.2223V19.2174V19.2124V19.2075V19.2026V19.1977V19.1928V19.188V19.1832V19.1783V19.1736V19.1688V19.164V19.1593V19.1546V19.1499V19.1453V19.1406C27.5063 18.6321 27.9033 18.225 28.3828 18.225ZM25.4531 17.2094C25.9336 17.2094 26.3297 17.6155 26.3297 18.125V21.4766C26.3297 21.985 25.9327 22.3922 25.4531 22.3922C24.9736 22.3922 24.5766 21.985 24.5766 21.4766V18.125C24.5766 17.6165 24.9736 17.2094 25.4531 17.2094ZM22.5234 17.2094C23.0039 17.2094 23.4 17.6155 23.4 18.125V20.3609H21.6469V18.125C21.6469 17.6165 22.0439 17.2094 22.5234 17.2094ZM19.5938 17.2094C20.0733 17.2094 20.4703 17.6165 20.4703 18.125V20.3609H19.1055C18.9749 20.3609 18.8452 20.3716 18.7172 20.3922V18.125C18.7172 17.6165 19.1142 17.2094 19.5938 17.2094ZM21.6469 34.8844V32.7484H28.2828V34.8844H21.6469Z" fill="white" stroke="white" stroke-width="0.2"/>
<path d="M24.5766 13.5547V10.5078C24.5766 10.1758 24.3169 9.9 23.9883 9.9C23.6597 9.9 23.4 10.1758 23.4 10.5078V13.5547C23.4 13.8867 23.6597 14.1625 23.9883 14.1625C24.3169 14.1625 24.5766 13.8867 24.5766 13.5547Z" fill="white" stroke="white" stroke-width="0.2"/>
<path d="M27.8338 14.2701L27.8338 14.2701L29.9052 12.1152L29.9053 12.1152C30.133 11.8781 30.133 11.4956 29.905 11.2585C29.6749 11.0193 29.3005 11.0193 29.0704 11.2585L29.0704 11.2585L26.999 13.4132L26.999 13.4132C26.7713 13.6503 26.7713 14.033 26.9992 14.2701L26.9992 14.2701C27.2293 14.5091 27.6037 14.5094 27.8338 14.2701Z" fill="white" stroke="white" stroke-width="0.2"/>
<path d="M21.2636 13.1156L21.2636 13.1156C21.4914 13.3525 21.4916 13.7352 21.2636 13.9723C21.0335 14.2116 20.6589 14.2116 20.4288 13.9725L20.4288 13.9725L18.357 11.8183L18.357 11.8182C18.1293 11.5812 18.129 11.1985 18.357 10.9616L21.2636 13.1156ZM21.2636 13.1156L19.1917 10.9614M21.2636 13.1156L19.1917 10.9614M19.1917 10.9614C19.1917 10.9614 19.1916 10.9614 19.1916 10.9614M19.1917 10.9614L19.1916 10.9614M19.1916 10.9614C18.9617 10.7223 18.5871 10.7223 18.3571 10.9615L19.1916 10.9614Z" fill="white" stroke="white" stroke-width="0.2"/>
</svg>
