<svg width="46" height="45" viewBox="0 0 46 45" fill="none" xmlns="http://www.w3.org/2000/svg">
<rect width="46" height="45" rx="10" fill="#D99F1A"/>
<path d="M31.9785 15.6836C30.8639 15.6836 29.957 16.5904 29.957 17.7051V22.0269C29.6522 21.8496 29.305 21.7546 28.943 21.7546C28.403 21.7546 27.8954 21.9649 27.5136 22.3467L24.4368 25.4236C23.8004 26.0599 23.45 26.9059 23.45 27.8059V34.3262C23.45 34.6983 23.7516 35 24.1238 35H29.7324C30.1045 35 30.4062 34.6983 30.4062 34.3262V31.3857L33.4341 26.8439C33.8043 26.2886 34 25.6423 34 24.9749V17.7051C34 16.5904 33.0932 15.6836 31.9785 15.6836ZM32.6523 24.9749C32.6523 25.3754 32.535 25.7631 32.3128 26.0963L29.1717 30.8079C29.0979 30.9186 29.0586 31.0486 29.0586 31.1816V33.6523H24.7976V27.8059C24.7976 27.2659 25.0079 26.7584 25.3897 26.3765L28.4665 23.2997C28.5938 23.1724 28.763 23.1023 28.943 23.1023C29.123 23.1023 29.2921 23.1724 29.4194 23.2997C29.6822 23.5624 29.6822 23.9899 29.4194 24.2527L27.0098 26.6623C26.7467 26.9254 26.7467 27.3521 27.0098 27.6152C27.2729 27.8783 27.6996 27.8783 27.9628 27.6152L30.581 24.997C31.0477 24.5303 31.3047 23.9099 31.3047 23.2499V17.7051C31.3047 17.3335 31.607 17.0312 31.9785 17.0312C32.3501 17.0312 32.6523 17.3335 32.6523 17.7051V24.9749Z" fill="white"/>
<path d="M17.4864 22.3467C17.1046 21.9649 16.597 21.7546 16.057 21.7546C15.695 21.7546 15.3478 21.8496 15.043 22.0269V17.7051C15.043 16.5904 14.1361 15.6836 13.0215 15.6836C11.9068 15.6836 11 16.5904 11 17.7051V24.9749C11 25.6423 11.1957 26.2886 11.5658 26.8438L14.5937 31.3857V34.3262C14.5937 34.6983 14.8954 35 15.2676 35H20.8762C21.2483 35 21.55 34.6983 21.55 34.3262V27.8059C21.55 26.906 21.1996 26.06 20.5632 25.4236L17.4864 22.3467ZM15.8282 30.8079L12.6872 26.0962C12.465 25.7631 12.3477 25.3754 12.3477 24.9749V17.7051C12.3477 17.3335 12.6499 17.0312 13.0215 17.0312C13.393 17.0312 13.6953 17.3335 13.6953 17.7051V23.2499C13.6953 23.9098 13.9523 24.5302 14.419 24.9969L17.0372 27.6152C17.3003 27.8783 17.727 27.8783 17.9901 27.6152C18.2533 27.3521 18.2533 26.9254 17.9901 26.6622L15.5803 24.2524C15.3178 23.9897 15.3178 23.5624 15.5805 23.2997C15.7078 23.1724 15.877 23.1023 16.057 23.1023C16.2369 23.1023 16.4062 23.1724 16.5334 23.2997L19.6103 26.3765C19.9921 26.7584 20.2023 27.266 20.2023 27.8059V33.6523H15.9414V31.1816C15.9414 31.0486 15.9021 30.9186 15.8282 30.8079Z" fill="white"/>
<path d="M29.0137 15.6797C29.0137 14.6968 28.6309 13.7728 27.9359 13.0778C27.2409 12.3828 26.3168 12 25.3339 12C24.3511 12 23.427 12.3828 22.732 13.0778L22.5 13.3098L22.268 13.0778C21.573 12.3828 20.6489 12 19.6661 12C18.6832 12 17.7591 12.3828 17.0641 13.0778C16.3691 13.7728 15.9863 14.6968 15.9863 15.6797C15.9863 16.6626 16.3691 17.5866 17.0641 18.2817L22.0235 23.2411C22.1551 23.3726 22.3275 23.4385 22.5 23.4385C22.6724 23.4385 22.8449 23.3726 22.9764 23.2411L27.9359 18.2817C28.6309 17.5866 29.0137 16.6626 29.0137 15.6797ZM26.983 17.3287L22.5 21.8117L18.0171 17.3287C17.5766 16.8882 17.334 16.3026 17.334 15.6797C17.334 15.0568 17.5766 14.4712 18.0171 14.0307C18.4575 13.5902 19.0431 13.3477 19.6661 13.3477C20.289 13.3477 20.8746 13.5902 21.3151 14.0307L22.0235 14.7392C22.1499 14.8655 22.3213 14.9365 22.5 14.9365C22.6787 14.9365 22.85 14.8656 22.9764 14.7392L23.6849 14.0307C24.1255 13.5902 24.7111 13.3477 25.3339 13.3477C25.9568 13.3477 26.5425 13.5902 26.9829 14.0307C27.4234 14.4712 27.666 15.0568 27.666 15.6797C27.666 16.3026 27.4234 16.8882 26.983 17.3287Z" fill="white"/>
</svg>
