<svg width="71" height="71" viewBox="0 0 71 71" fill="none" xmlns="http://www.w3.org/2000/svg">
<circle cx="35.5" cy="35.5" r="35.5" fill="#329FBA"/>
<path fill-rule="evenodd" clip-rule="evenodd" d="M38.392 26.9513C36.8068 26.5718 35.1614 26.5718 33.5761 26.9513L33.3159 27.0136C30.4929 27.6893 28.2377 29.9995 27.5421 33.0255C27.1505 34.7292 27.1537 36.5258 27.546 38.2328C28.2688 41.3773 30.3889 43.9648 33.1894 45.1622L33.3273 45.2211C34.0443 45.5277 34.9398 45.1837 35.2802 44.3136C35.5975 43.5024 36.3762 42.9146 37.2959 42.9146H38.5342C41.3219 42.9146 43.8082 40.9035 44.4854 37.9578C44.8383 36.4219 44.8383 34.8192 44.4854 33.2833L44.3816 32.8324C43.7133 29.9247 41.5468 27.7064 38.8366 27.0577L38.392 26.9513ZM33.0329 24.682C34.9753 24.2171 36.9929 24.2171 38.9352 24.682L39.3798 24.7885C42.9998 25.655 45.8002 28.5877 46.6557 32.3097L46.7593 32.7606C47.1914 34.6405 47.1914 36.6006 46.7593 38.4805C45.8554 42.4129 42.4822 45.2479 38.5342 45.2479H37.4191C36.607 47.1946 34.4017 48.2182 32.41 47.3666L32.2722 47.3077C28.7473 45.8007 26.1522 42.5846 25.272 38.7554C24.8013 36.7077 24.7967 34.5537 25.2681 32.5028C26.1508 28.6625 29.0397 25.6379 32.7727 24.7443L33.0329 24.682ZM30.9791 32.5676C30.9791 31.9233 31.5014 31.4009 32.1457 31.4009H39.1826C39.827 31.4009 40.3493 31.9233 40.3493 32.5676C40.3493 33.2119 39.827 33.7342 39.1826 33.7342H32.1457C31.5014 33.7342 30.9791 33.2119 30.9791 32.5676ZM30.9791 36.5998C30.9791 35.9554 31.5014 35.4331 32.1457 35.4331H36.6238C37.2681 35.4331 37.7904 35.9554 37.7904 36.5998C37.7904 37.2441 37.2681 37.7665 36.6238 37.7665H32.1457C31.5014 37.7665 30.9791 37.2441 30.9791 36.5998Z" fill="white"/>
</svg>
