<svg width="46" height="45" viewBox="0 0 46 45" fill="none" xmlns="http://www.w3.org/2000/svg">
<rect width="46" height="45" rx="10" fill="#D99F1A"/>
<path d="M36.087 25.016L36.087 25.0155C36.0269 23.6328 35.7866 22.1015 35.4265 20.6611L35.4262 20.6602C35.0665 19.2813 34.6157 17.9872 34.0721 16.9906L34.0721 16.9906L34.0712 16.989C33.0156 15.1342 31.9035 14.3319 30.6965 14.0967C29.5006 13.8636 28.2295 14.1929 26.8752 14.55C26.7982 14.5686 26.7208 14.5874 26.6431 14.6063C25.8445 14.8003 25.0067 15.0038 24.1448 15.0851H23.8552C22.9933 15.0038 22.1556 14.8003 21.3569 14.6063C21.279 14.5874 21.2015 14.5685 21.1244 14.5499C21.1242 14.5499 21.124 14.5498 21.1238 14.5498L21.0669 14.5354C19.7347 14.1986 18.4823 13.8819 17.3035 14.1117C16.0964 14.3469 14.9842 15.1494 13.9287 17.0192L13.9286 17.0192L13.9279 17.0205C13.3849 18.016 12.9039 19.3098 12.5734 20.6915C12.2134 22.1317 11.9731 23.6628 11.913 25.0454L11.913 25.0459C11.8529 26.5766 12.0022 27.6997 12.3393 28.4966L12.3393 28.4966L12.3405 28.4993C12.6787 29.2372 13.1771 29.7099 13.8388 29.8989L13.8388 29.8989L13.8408 29.8995C14.4339 30.0556 15.1143 29.9915 15.8183 29.6856C17.001 29.2002 18.3565 28.174 19.6739 26.9464L19.6739 26.9464L19.6753 26.9451C20.5743 26.0751 22.2761 25.6281 24 25.6281C25.7239 25.6281 27.4257 26.0751 28.3247 26.9451L28.3261 26.9464C29.6438 28.1743 30.9997 29.2007 32.1826 29.6861L32.1842 29.6866C32.8832 29.9602 33.5636 30.0562 34.1592 29.8995L34.1592 29.8995L34.1625 29.8986C34.7907 29.7101 35.3208 29.2696 35.6604 28.4673C35.9981 27.6993 36.147 26.5754 36.087 25.016ZM18.7607 25.9927L18.7605 25.9928C17.5354 27.1283 16.3222 28.0726 15.3255 28.4537C14.8477 28.6329 14.4608 28.7087 14.1695 28.6028L14.1695 28.6026L14.164 28.601C13.9029 28.5226 13.6821 28.3119 13.5099 27.9103C13.2797 27.3632 13.1593 26.4548 13.2188 25.0842C13.2783 23.8055 13.4866 22.3477 13.8435 20.9797L13.8436 20.9792C14.1714 19.6977 14.5873 18.5116 15.0892 17.6258L15.0896 17.6251C15.9017 16.1633 16.7691 15.5681 17.6992 15.3993C18.6411 15.2284 19.6645 15.4896 20.8059 15.79L20.8064 15.7901C21.7328 16.0292 22.6968 16.2704 23.7523 16.3609L23.7523 16.3612H23.7609H23.761H23.7612H23.7614H23.7616H23.7617H23.7619H23.7621H23.7622H23.7624H23.7626H23.7628H23.7629H23.7631H23.7633H23.7634H23.7636H23.7637H23.7639H23.7641H23.7642H23.7644H23.7646H23.7647H23.7649H23.765H23.7652H23.7654H23.7655H23.7657H23.7658H23.766H23.7661H23.7663H23.7664H23.7666H23.7667H23.7669H23.7671H23.7672H23.7674H23.7675H23.7677H23.7678H23.7679H23.7681H23.7682H23.7684H23.7685H23.7687H23.7688H23.769H23.7691H23.7693H23.7694H23.7695H23.7697H23.7698H23.77H23.7701H23.7702H23.7704H23.7705H23.7707H23.7708H23.7709H23.7711H23.7712H23.7713H23.7715H23.7716H23.7717H23.7719H23.772H23.7721H23.7723H23.7724H23.7725H23.7727H23.7728H23.7729H23.773H23.7732H23.7733H23.7734H23.7736H23.7737H23.7738H23.7739H23.7741H23.7742H23.7743H23.7744H23.7746H23.7747H23.7748H23.7749H23.775H23.7752H23.7753H23.7754H23.7755H23.7756H23.7758H23.7759H23.776H23.7761H23.7762H23.7764H23.7765H23.7766H23.7767H23.7768H23.7769H23.777H23.7772H23.7773H23.7774H23.7775H23.7776H23.7777H23.7778H23.778H23.7781H23.7782H23.7783H23.7784H23.7785H23.7786H23.7787H23.7788H23.7789H23.779H23.7792H23.7793H23.7794H23.7795H23.7796H23.7797H23.7798H23.7799H23.78H23.7801H23.7802H23.7803H23.7804H23.7805H23.7806H23.7807H23.7808H23.7809H23.781H23.7811H23.7812H23.7814H23.7815H23.7816H23.7817H23.7818H23.7819H23.782H23.7821H23.7822H23.7823H23.7824H23.7825H23.7826H23.7826H23.7827H23.7828H23.7829H23.783H23.7831H23.7832H23.7833H23.7834H23.7835H23.7836H23.7837H23.7838H23.7839H23.784H23.7841H23.7842H23.7843H23.7844H23.7845H23.7846H23.7847H23.7848H23.7848H23.7849H23.785H23.7851H23.7852H23.7853H23.7854H23.7855H23.7856H23.7857H23.7858H23.7859H23.786H23.786H23.7861H23.7862H23.7863H23.7864H23.7865H23.7866H23.7867H23.7868H23.7869H23.787H23.787H23.7871H23.7872H23.7873H23.7874H23.7875H23.7876H23.7877H23.7878H23.7879H23.7879H23.788H23.7881H23.7882H23.7883H23.7884H23.7885H23.7886H23.7886H23.7887H23.7888H23.7889H23.789H23.7891H23.7892H23.7893H23.7894H23.7894H23.7895H23.7896H23.7897H23.7898H23.7899H23.79H23.7901H23.7901H23.7902H23.7903H23.7904H23.7905H23.7906H23.7907H23.7908H23.7908H23.7909H23.791H23.7911H23.7912H23.7913H23.7914H23.7915H23.7915H23.7916H23.7917H23.7918H23.7919H23.792H23.7921H23.7922H23.7922H23.7923H23.7924H23.7925H23.7926H23.7927H23.7928H23.7929H23.793H23.793H23.7931H23.7932H23.7933H23.7934H23.7935H23.7936H23.7937H23.7938H23.7938H23.7939H23.794H23.7941H23.7942H23.7943H23.7944H23.7945H23.7946H23.7946H23.7947H23.7948H23.7949H23.795H23.7951H23.7952H23.7953H23.7954H23.7955H23.7956H23.7956H23.7957H23.7958H23.7959H23.796H23.7961H23.7962H23.7963H23.7964H23.7965H23.7966H23.7967H23.7968H23.7969H23.7969H23.797H23.7971H23.7972H23.7973H23.7974H23.7975H23.7976H23.7977H23.7978H23.7979H23.798H23.7981H23.7982H23.7983H23.7984H23.7985H23.7986H23.7987H23.7988H23.7989H23.799H23.7991H23.7992H23.7993H23.7994H23.7995H23.7996H23.7997H23.7998H23.7999H23.8H23.8001H23.8002H23.8003H23.8004H23.8005H23.8006H23.8007H23.8008H23.8009H23.801H23.8011H23.8012H23.8013H23.8014H23.8015H23.8016H23.8017H23.8018H23.8019H23.802H23.8021H23.8023H23.8024H23.8025H23.8026H23.8027H23.8028H23.8029H23.803H23.8031H23.8032H23.8033H23.8035H23.8036H23.8037H23.8038H23.8039H23.804H23.8041H23.8042H23.8044H23.8045H23.8046H23.8047H23.8048H23.8049H23.805H23.8052H23.8053H23.8054H23.8055H23.8056H23.8058H23.8059H23.806H23.8061H23.8062H23.8064H23.8065H23.8066H23.8067H23.8068H23.807H23.8071H23.8072H23.8073H23.8075H23.8076H23.8077H23.8078H23.808H23.8081H23.8082H23.8083H23.8085H23.8086H23.8087H23.8089H23.809H23.8091H23.8092H23.8094H23.8095H23.8096H23.8098H23.8099H23.81H23.8102H23.8103H23.8105H23.8106H23.8107H23.8109H23.811H23.8111H23.8113H23.8114H23.8116H23.8117H23.8118H23.812H23.8121H23.8123H23.8124H23.8125H23.8127H23.8128H23.813H23.8131H23.8133H23.8134H23.8136H23.8137H23.8139H23.814H23.8142H23.8143H23.8145H23.8146H23.8148H23.8149H23.8151H23.8152H23.8154H23.8155H23.8157H23.8158H23.816H23.8162H23.8163H23.8165H23.8166H23.8168H23.817H23.8171H23.8173H23.8174H23.8176H23.8178H23.8179H23.8181H23.8183H23.8184H23.8186H23.8188H23.8189H23.8191H23.8193H23.8194H23.8196H23.8198H23.82H23.8201H23.8203H23.8205H23.8207H24.1495H24.1496H24.1498H24.15H24.1502H24.1503H24.1505H24.1507H24.1509H24.151H24.1512H24.1514H24.1515H24.1517H24.1519H24.152H24.1522H24.1524H24.1525H24.1527H24.1528H24.153H24.1532H24.1533H24.1535H24.1536H24.1538H24.154H24.1541H24.1543H24.1544H24.1546H24.1547H24.1549H24.1551H24.1552H24.1554H24.1555H24.1557H24.1558H24.156H24.1561H24.1563H24.1564H24.1566H24.1567H24.1568H24.157H24.1571H24.1573H24.1574H24.1576H24.1577H24.1579H24.158H24.1581H24.1583H24.1584H24.1586H24.1587H24.1588H24.159H24.1591H24.1593H24.1594H24.1595H24.1597H24.1598H24.1599H24.1601H24.1602H24.1603H24.1605H24.1606H24.1607H24.1609H24.161H24.1611H24.1613H24.1614H24.1615H24.1617H24.1618H24.1619H24.162H24.1622H24.1623H24.1624H24.1625H24.1627H24.1628H24.1629H24.163H24.1632H24.1633H24.1634H24.1635H24.1637H24.1638H24.1639H24.164H24.1641H24.1643H24.1644H24.1645H24.1646H24.1647H24.1648H24.165H24.1651H24.1652H24.1653H24.1654H24.1655H24.1657H24.1658H24.1659H24.166H24.1661H24.1662H24.1663H24.1664H24.1666H24.1667H24.1668H24.1669H24.167H24.1671H24.1672H24.1673H24.1674H24.1675H24.1677H24.1678H24.1679H24.168H24.1681H24.1682H24.1683H24.1684H24.1685H24.1686H24.1687H24.1688H24.1689H24.169H24.1691H24.1692H24.1693H24.1694H24.1696H24.1697H24.1698H24.1699H24.17H24.1701H24.1702H24.1703H24.1704H24.1705H24.1706H24.1707H24.1708H24.1709H24.171H24.1711H24.1712H24.1713H24.1714H24.1715H24.1716H24.1716H24.1717H24.1718H24.1719H24.172H24.1721H24.1722H24.1723H24.1724H24.1725H24.1726H24.1727H24.1728H24.1729H24.173H24.1731H24.1732H24.1733H24.1734H24.1735H24.1736H24.1736H24.1737H24.1738H24.1739H24.174H24.1741H24.1742H24.1743H24.1744H24.1745H24.1746H24.1747H24.1747H24.1748H24.1749H24.175H24.1751H24.1752H24.1753H24.1754H24.1755H24.1756H24.1757H24.1757H24.1758H24.1759H24.176H24.1761H24.1762H24.1763H24.1764H24.1765H24.1765H24.1766H24.1767H24.1768H24.1769H24.177H24.1771H24.1772H24.1773H24.1773H24.1774H24.1775H24.1776H24.1777H24.1778H24.1779H24.178H24.1781H24.1781H24.1782H24.1783H24.1784H24.1785H24.1786H24.1787H24.1788H24.1788H24.1789H24.179H24.1791H24.1792H24.1793H24.1794H24.1795H24.1795H24.1796H24.1797H24.1798H24.1799H24.18H24.1801H24.1802H24.1802H24.1803H24.1804H24.1805H24.1806H24.1807H24.1808H24.1809H24.1809H24.181H24.1811H24.1812H24.1813H24.1814H24.1815H24.1816H24.1817H24.1817H24.1818H24.1819H24.182H24.1821H24.1822H24.1823H24.1824H24.1825H24.1825H24.1826H24.1827H24.1828H24.1829H24.183H24.1831H24.1832H24.1833H24.1833H24.1834H24.1835H24.1836H24.1837H24.1838H24.1839H24.184H24.1841H24.1842H24.1843H24.1843H24.1844H24.1845H24.1846H24.1847H24.1848H24.1849H24.185H24.1851H24.1852H24.1853H24.1854H24.1855H24.1856H24.1856H24.1857H24.1858H24.1859H24.186H24.1861H24.1862H24.1863H24.1864H24.1865H24.1866H24.1867H24.1868H24.1869H24.187H24.1871H24.1872H24.1873H24.1874H24.1875H24.1876H24.1877H24.1878H24.1879H24.188H24.1881H24.1882H24.1883H24.1884H24.1885H24.1886H24.1887H24.1888H24.1889H24.189H24.1891H24.1892H24.1893H24.1894H24.1895H24.1896H24.1897H24.1898H24.1899H24.19H24.1901H24.1902H24.1903H24.1904H24.1905H24.1906H24.1908H24.1909H24.191H24.1911H24.1912H24.1913H24.1914H24.1915H24.1916H24.1917H24.1918H24.192H24.1921H24.1922H24.1923H24.1924H24.1925H24.1926H24.1927H24.1929H24.193H24.1931H24.1932H24.1933H24.1934H24.1935H24.1937H24.1938H24.1939H24.194H24.1941H24.1942H24.1944H24.1945H24.1946H24.1947H24.1948H24.195H24.1951H24.1952H24.1953H24.1954H24.1956H24.1957H24.1958H24.1959H24.1961H24.1962H24.1963H24.1964H24.1966H24.1967H24.1968H24.197H24.1971H24.1972H24.1973H24.1975H24.1976H24.1977H24.1979H24.198H24.1981H24.1983H24.1984H24.1985H24.1987H24.1988H24.1989H24.1991H24.1992H24.1993H24.1995H24.1996H24.1997H24.1999H24.2H24.2002H24.2003H24.2004H24.2006H24.2007H24.2009H24.201H24.2012H24.2013H24.2014H24.2016H24.2017H24.2019H24.202H24.2022H24.2023H24.2025H24.2026H24.2028H24.2029H24.2031H24.2032H24.2034H24.2035H24.2037H24.2038H24.204H24.2041H24.2043H24.2045H24.2046H24.2048H24.2049H24.2051H24.2052H24.2054H24.2056H24.2057H24.2059H24.2061H24.2062H24.2064H24.2065H24.2067H24.2069H24.207H24.2072H24.2074H24.2075H24.2077H24.2079H24.2081H24.2082H24.2084H24.2086H24.2087H24.2089H24.2091H24.2093V16.3616L24.2176 16.3609C25.3029 16.2704 26.2668 16.0293 27.1933 15.7902C27.1934 15.7902 27.1935 15.7901 27.1937 15.7901L27.2394 15.7786C28.3631 15.4977 29.3715 15.2455 30.3012 15.4106C31.2313 15.5758 32.0985 16.1636 32.9104 17.6251L32.9108 17.6258C33.4128 18.5118 33.8286 19.6679 34.1562 20.9782C34.484 22.349 34.7218 23.7772 34.7812 25.0842C34.8407 26.4543 34.7204 27.3629 34.4603 27.9698C34.2884 28.3709 34.068 28.5817 33.8073 28.6604C33.5086 28.7414 33.1147 28.6897 32.6454 28.5138C31.6175 28.1024 30.4038 27.187 29.2114 26.0543C28.0488 24.8925 26.0154 24.322 24 24.322C21.9836 24.322 19.952 24.893 18.7607 25.9927Z" fill="white" stroke="white" stroke-width="0.2"/>
<path d="M21.3205 19.1201L21.3206 19.12L21.3167 19.1164C21.0277 18.8563 20.6768 18.6433 20.2647 18.5912C20.2155 18.2076 20.0327 17.8323 19.766 17.5656L19.7361 17.5357C19.3889 17.1885 18.9451 16.9983 18.4398 16.9983C17.9333 16.9983 17.4599 17.2193 17.1435 17.5357C16.8783 17.801 16.6666 18.1776 16.6146 18.5909C16.2064 18.6393 15.8555 18.8233 15.563 19.0866L15.5629 19.0865L15.5592 19.0902L15.5293 19.1201C15.182 19.4673 14.9918 19.9111 14.9918 20.4164C14.9918 20.9229 15.2128 21.3963 15.5293 21.7127C15.825 22.0084 16.1792 22.1948 16.6144 22.2425C16.6628 22.6513 16.8473 23.0297 17.1453 23.2989C17.4923 23.645 17.9354 23.8345 18.4398 23.8345C18.9464 23.8345 19.4197 23.6135 19.7361 23.297L19.7362 23.2971L19.7398 23.2932C19.9997 23.0044 20.2126 22.6538 20.265 22.242C20.6741 22.1937 21.053 22.0091 21.3223 21.7109C21.6684 21.3639 21.8579 20.9208 21.8579 20.4164C21.8579 19.9098 21.6369 19.4365 21.3205 19.1201ZM16.2978 20.4164C16.2978 20.2618 16.3483 20.1383 16.4479 20.0387L16.448 20.0387L16.4484 20.0382L16.4516 20.035L16.4726 20.014C16.5775 19.9369 16.7041 19.8886 16.8256 19.8886H17.2441C17.5948 19.8886 17.9121 19.6081 17.9121 19.2207V18.8022C17.9121 18.6475 17.9625 18.5241 18.0621 18.4245C18.1617 18.3249 18.2852 18.2744 18.4398 18.2744C18.5944 18.2744 18.7179 18.3249 18.8175 18.4245L18.8175 18.4245L18.8176 18.4245L18.818 18.425L18.8212 18.4282L18.8422 18.4492C18.9193 18.5541 18.9676 18.6807 18.9676 18.8022V19.2207C18.9676 19.5714 19.2481 19.8886 19.6355 19.8886H20.054C20.2087 19.8886 20.3321 19.9391 20.4317 20.0387C20.5313 20.1383 20.5818 20.2618 20.5818 20.4164C20.5818 20.571 20.5313 20.6945 20.4317 20.7941C20.3321 20.8937 20.2087 20.9441 20.054 20.9441H19.6355C19.2848 20.9441 18.9676 21.2247 18.9676 21.6121V22.0007C18.9676 22.1553 18.9171 22.2788 18.8175 22.3784C18.7179 22.478 18.5944 22.5285 18.4398 22.5285C18.2852 22.5285 18.1617 22.478 18.0621 22.3784C17.9625 22.2788 17.9121 22.1553 17.9121 22.0007V21.5822C17.9121 21.2315 17.6315 20.9143 17.2441 20.9143H16.8256C16.671 20.9143 16.5475 20.8638 16.4479 20.7642C16.3716 20.6879 16.2978 20.5625 16.2978 20.4164Z" fill="white" stroke="white" stroke-width="0.2"/>
<path d="M29.2015 19.4402C29.8346 19.4402 30.3478 18.927 30.3478 18.2939C30.3478 17.6609 29.8346 17.1477 29.2015 17.1477C28.5685 17.1477 28.0553 17.6609 28.0553 18.2939C28.0553 18.927 28.5685 19.4402 29.2015 19.4402Z" fill="white" stroke="white" stroke-width="0.2"/>
<path d="M29.2015 23.6849C29.8346 23.6849 30.3478 23.1717 30.3478 22.5387C30.3478 21.9056 29.8346 21.3924 29.2015 21.3924C28.5685 21.3924 28.0553 21.9056 28.0553 22.5387C28.0553 23.1717 28.5685 23.6849 29.2015 23.6849Z" fill="white" stroke="white" stroke-width="0.2"/>
<path d="M27.079 21.5626C27.712 21.5626 28.2252 21.0494 28.2252 20.4164C28.2252 19.7833 27.712 19.2701 27.079 19.2701C26.4459 19.2701 25.9327 19.7833 25.9327 20.4164C25.9327 21.0494 26.4459 21.5626 27.079 21.5626Z" fill="white" stroke="white" stroke-width="0.2"/>
<path d="M31.3238 21.5626C31.9569 21.5626 32.4701 21.0494 32.4701 20.4164C32.4701 19.7833 31.9569 19.2701 31.3238 19.2701C30.6908 19.2701 30.1776 19.7833 30.1776 20.4164C30.1776 21.0494 30.6908 21.5626 31.3238 21.5626Z" fill="white" stroke="white" stroke-width="0.2"/>
</svg>
