<svg width="58" height="50" viewBox="0 0 58 50" fill="none" xmlns="http://www.w3.org/2000/svg">
<rect opacity="0.6" y="12" width="58" height="38" rx="10" fill="#6EC1D5"/>
<path d="M21.8298 0H36.1148C42.6341 0 47.9189 5.40931 47.9189 12.0822C47.9189 16.9091 45.1536 21.0744 41.1559 23.0101C39.5501 23.7874 38.5208 25.4356 38.5208 27.2533V29.8453C38.5208 30.8304 37.2766 31.2236 36.7343 30.4095L33.9379 26.2111C33.0849 24.9303 31.6683 24.1643 30.1534 24.1643H21.8298C15.3105 24.1643 10.0257 18.755 10.0257 12.0822C10.0257 5.40931 15.3105 0 21.8298 0V0Z" fill="#F4F4F5"/>
<path d="M35.0115 22.6255H26.6875C20.1682 22.6255 14.8834 17.2157 14.8834 10.5433C14.8834 6.14447 17.1804 2.29487 20.6135 0.181854C14.6658 0.805011 10.0257 5.94809 10.0257 12.2005C10.0257 18.8734 15.3105 24.2827 21.8298 24.2827H30.1538C31.6683 24.2827 33.0849 25.0492 33.9379 26.3299L36.7343 30.5279C37.2766 31.342 38.5208 30.9492 38.5208 29.9637V27.3717C38.5208 26.5653 38.7242 25.7925 39.0902 25.114L38.7955 24.6727C37.9426 23.3915 36.526 22.6255 35.0115 22.6255V22.6255Z" fill="#D1D4D5"/>
<path d="M39.1416 12.313C39.1416 13.5448 38.1659 14.5435 36.9625 14.5435C35.759 14.5435 34.7833 13.5448 34.7833 12.313C34.7833 11.0812 35.759 10.0825 36.9625 10.0825C38.1659 10.0825 39.1416 11.0812 39.1416 12.313Z" fill="#485558"/>
<path d="M31.1512 12.313C31.1512 13.5448 30.176 14.5435 28.9725 14.5435C27.7691 14.5435 26.7934 13.5448 26.7934 12.313C26.7934 11.0812 27.7691 10.0825 28.9725 10.0825C30.176 10.0825 31.1512 11.0812 31.1512 12.313Z" fill="#485558"/>
<path d="M23.1613 12.313C23.1613 13.5448 22.1856 14.5435 20.9822 14.5435C19.7787 14.5435 18.803 13.5448 18.803 12.313C18.803 11.0812 19.7787 10.0825 20.9822 10.0825C22.1856 10.0825 23.1613 11.0812 23.1613 12.313Z" fill="#485558"/>
</svg>
