<svg width="165" height="76" viewBox="0 0 165 76" fill="none" xmlns="http://www.w3.org/2000/svg">
<g filter="url(#filter0_d)">
<rect x="10" y="4" width="145" height="56" rx="16" fill="#DC1D54"/>
<path d="M54.25 31.695V32.5C54.2489 34.3869 53.6379 36.2228 52.5082 37.7341C51.3784 39.2454 49.7904 40.3509 47.9809 40.8859C46.1715 41.4209 44.2376 41.3567 42.4677 40.7028C40.6977 40.0489 39.1866 38.8403 38.1596 37.2574C37.1326 35.6745 36.6448 33.8021 36.769 31.9193C36.8931 30.0365 37.6226 28.2443 38.8485 26.8099C40.0744 25.3756 41.7312 24.376 43.5717 23.9601C45.4121 23.5443 47.3377 23.7345 49.0613 24.5025" stroke="white" stroke-width="2" stroke-linecap="round" stroke-linejoin="round"/>
<path d="M54.25 25.5L45.5 34.2588L42.875 31.6338" stroke="white" stroke-width="2" stroke-linecap="round" stroke-linejoin="round"/>
<path d="M76.688 30V37H75.12V27.06H76.352L82.036 34.228V27.074H83.618V37H82.316L76.688 30ZM88.8507 37.14C88.2721 37.14 87.7494 37.0373 87.2827 36.832C86.8254 36.6267 86.4334 36.3513 86.1067 36.006C85.7801 35.6607 85.5281 35.2593 85.3507 34.802C85.1734 34.3353 85.0847 33.85 85.0847 33.346C85.0847 32.842 85.1734 32.3613 85.3507 31.904C85.5281 31.4373 85.7801 31.0313 86.1067 30.686C86.4427 30.3407 86.8394 30.0653 87.2967 29.86C87.7634 29.6547 88.2814 29.552 88.8507 29.552C89.4201 29.552 89.9334 29.6547 90.3907 29.86C90.8574 30.0653 91.2541 30.3407 91.5807 30.686C91.9167 31.0313 92.1734 31.4373 92.3507 31.904C92.5281 32.3613 92.6167 32.842 92.6167 33.346C92.6167 33.85 92.5281 34.3353 92.3507 34.802C92.1734 35.2593 91.9167 35.6607 91.5807 36.006C91.2541 36.3513 90.8574 36.6267 90.3907 36.832C89.9334 37.0373 89.4201 37.14 88.8507 37.14ZM86.6667 33.36C86.6667 33.7147 86.7227 34.0413 86.8347 34.34C86.9467 34.6387 87.1007 34.9 87.2967 35.124C87.4927 35.3387 87.7214 35.5113 87.9827 35.642C88.2534 35.7633 88.5427 35.824 88.8507 35.824C89.1587 35.824 89.4434 35.7633 89.7047 35.642C89.9754 35.5113 90.2087 35.334 90.4047 35.11C90.6007 34.886 90.7547 34.6247 90.8667 34.326C90.9787 34.0273 91.0347 33.7007 91.0347 33.346C91.0347 33.0007 90.9787 32.6787 90.8667 32.38C90.7547 32.072 90.6007 31.806 90.4047 31.582C90.2087 31.358 89.9754 31.1853 89.7047 31.064C89.4434 30.9333 89.1587 30.868 88.8507 30.868C88.5521 30.868 88.2674 30.9333 87.9967 31.064C87.7354 31.1947 87.5067 31.372 87.3107 31.596C87.1147 31.82 86.9561 32.086 86.8347 32.394C86.7227 32.6927 86.6667 33.0147 86.6667 33.36ZM97.9609 36.622C97.7649 36.7153 97.4942 36.8227 97.1489 36.944C96.8036 37.056 96.4349 37.112 96.0429 37.112C95.8002 37.112 95.5716 37.0793 95.3569 37.014C95.1422 36.9487 94.9509 36.8507 94.7829 36.72C94.6242 36.5893 94.4982 36.4213 94.4049 36.216C94.3116 36.0013 94.2649 35.7447 94.2649 35.446V30.868H93.2989V29.678H94.2649V27.27H95.8049V29.678H97.4009V30.868H95.8049V34.956C95.8236 35.2173 95.9029 35.4087 96.0429 35.53C96.1922 35.642 96.3742 35.698 96.5889 35.698C96.8036 35.698 97.0089 35.6607 97.2049 35.586C97.4009 35.5113 97.5456 35.4507 97.6389 35.404L97.9609 36.622ZM100.974 37.14C100.619 37.14 100.288 37.084 99.9795 36.972C99.6808 36.8507 99.4195 36.6873 99.1955 36.482C98.9808 36.2767 98.8082 36.034 98.6775 35.754C98.5562 35.474 98.4955 35.1707 98.4955 34.844C98.4955 34.4987 98.5702 34.186 98.7195 33.906C98.8688 33.626 99.0788 33.3833 99.3495 33.178C99.6295 32.9727 99.9562 32.814 100.33 32.702C100.712 32.59 101.132 32.534 101.59 32.534C101.935 32.534 102.276 32.5667 102.612 32.632C102.948 32.688 103.251 32.7673 103.522 32.87V32.366C103.522 31.8247 103.368 31.4047 103.06 31.106C102.752 30.798 102.308 30.644 101.73 30.644C101.338 30.644 100.95 30.7187 100.568 30.868C100.194 31.008 99.8068 31.2133 99.4055 31.484L98.9295 30.504C99.8722 29.8693 100.852 29.552 101.87 29.552C102.878 29.552 103.662 29.8087 104.222 30.322C104.782 30.8353 105.062 31.5727 105.062 32.534V35.18C105.062 35.5067 105.197 35.6747 105.468 35.684V37C105.318 37.028 105.188 37.0467 105.076 37.056C104.973 37.0653 104.87 37.07 104.768 37.07C104.469 37.07 104.236 36.9953 104.068 36.846C103.909 36.6967 103.811 36.5053 103.774 36.272L103.732 35.81C103.405 36.2393 102.999 36.5707 102.514 36.804C102.038 37.028 101.524 37.14 100.974 37.14ZM101.394 36.006C101.767 36.006 102.117 35.9407 102.444 35.81C102.78 35.67 103.041 35.4787 103.228 35.236C103.424 35.068 103.522 34.8907 103.522 34.704V33.738C103.26 33.6353 102.98 33.556 102.682 33.5C102.392 33.444 102.108 33.416 101.828 33.416C101.277 33.416 100.824 33.5373 100.47 33.78C100.124 34.0133 99.9515 34.326 99.9515 34.718C99.9515 35.082 100.087 35.39 100.358 35.642C100.628 35.8847 100.974 36.006 101.394 36.006ZM109.59 37.14C109.002 37.14 108.414 37.0467 107.826 36.86C107.247 36.664 106.748 36.3887 106.328 36.034L106.944 35.054C107.383 35.3713 107.817 35.614 108.246 35.782C108.675 35.9407 109.114 36.02 109.562 36.02C110.019 36.02 110.379 35.9313 110.64 35.754C110.911 35.5767 111.046 35.3247 111.046 34.998C111.046 34.69 110.897 34.466 110.598 34.326C110.299 34.186 109.833 34.032 109.198 33.864C108.741 33.7427 108.349 33.626 108.022 33.514C107.695 33.402 107.429 33.2713 107.224 33.122C107.019 32.9727 106.869 32.8 106.776 32.604C106.683 32.408 106.636 32.17 106.636 31.89C106.636 31.5167 106.706 31.1853 106.846 30.896C106.995 30.6067 107.196 30.364 107.448 30.168C107.709 29.9627 108.013 29.8087 108.358 29.706C108.703 29.6033 109.077 29.552 109.478 29.552C110.029 29.552 110.542 29.636 111.018 29.804C111.494 29.972 111.919 30.2147 112.292 30.532L111.634 31.456C110.953 30.9147 110.229 30.644 109.464 30.644C109.072 30.644 108.741 30.728 108.47 30.896C108.209 31.0547 108.078 31.3113 108.078 31.666C108.078 31.8153 108.106 31.9413 108.162 32.044C108.218 32.1467 108.307 32.2353 108.428 32.31C108.559 32.3847 108.722 32.4547 108.918 32.52C109.123 32.576 109.375 32.6413 109.674 32.716C110.169 32.8373 110.593 32.9587 110.948 33.08C111.312 33.2013 111.611 33.346 111.844 33.514C112.077 33.6727 112.25 33.864 112.362 34.088C112.474 34.3027 112.53 34.564 112.53 34.872C112.53 35.572 112.264 36.1273 111.732 36.538C111.209 36.9393 110.495 37.14 109.59 37.14Z" fill="white"/>
</g>
<defs>
<filter id="filter0_d" x="0" y="0" width="165" height="76" filterUnits="userSpaceOnUse" color-interpolation-filters="sRGB">
<feFlood flood-opacity="0" result="BackgroundImageFix"/>
<feColorMatrix in="SourceAlpha" type="matrix" values="0 0 0 0 0 0 0 0 0 0 0 0 0 0 0 0 0 0 127 0" result="hardAlpha"/>
<feOffset dy="6"/>
<feGaussianBlur stdDeviation="5"/>
<feColorMatrix type="matrix" values="0 0 0 0 0.0889584 0 0 0 0 0.425289 0 0 0 0 0.508333 0 0 0 0.24 0"/>
<feBlend mode="normal" in2="BackgroundImageFix" result="effect1_dropShadow"/>
<feBlend mode="normal" in="SourceGraphic" in2="effect1_dropShadow" result="shape"/>
</filter>
</defs>
</svg>
