<svg width="19" height="15" viewBox="0 0 19 15" fill="none" xmlns="http://www.w3.org/2000/svg">
<path d="M18.0299 2.57929C17.8247 1.73586 17.223 1.071 16.46 0.843895C15.0662 0.422363 9.49051 0.422363 9.49051 0.422363C9.49051 0.422363 3.91508 0.422363 2.52119 0.827913C1.77288 1.05478 1.15655 1.73598 0.95129 2.57929C0.584473 4.11978 0.584473 7.31455 0.584473 7.31455C0.584473 7.31455 0.584473 10.5254 0.95129 12.0498C1.15677 12.8931 1.7582 13.558 2.5213 13.7851C3.92975 14.2067 9.49072 14.2067 9.49072 14.2067C9.49072 14.2067 15.0662 14.2067 16.46 13.8012C17.2231 13.5742 17.8247 12.9093 18.0302 12.066C18.3969 10.5254 18.3969 7.33077 18.3969 7.33077C18.3969 7.33077 18.4115 4.11978 18.0299 2.57929V2.57929ZM7.71534 10.266V4.36311L12.3518 7.31455L7.71534 10.266Z" fill="white"/>
</svg>
