<svg width="1587" height="419" viewBox="0 0 1587 419" fill="none" xmlns="http://www.w3.org/2000/svg">
<g clip-path="url(#clip0)">
<path d="M544.635 -21H550.544V-15.4097H544.635V-21Z" fill="#EFF0F0"/>
<path d="M544.635 9.59033H550.544V15.1807H544.635V9.59033Z" fill="#EFF0F0"/>
<path d="M544.635 40.1807H550.544V45.771H544.635V40.1807Z" fill="#EFF0F0"/>
<path d="M544.635 70.771H550.544V76.3613H544.635V70.771Z" fill="#EFF0F0"/>
<path d="M513.726 -21H519.635V-15.4097H513.726V-21Z" fill="#EFF0F0"/>
<path d="M513.726 9.59033H519.635V15.1807H513.726V9.59033Z" fill="#EFF0F0"/>
<path d="M513.726 40.1807H519.635V45.771H513.726V40.1807Z" fill="#EFF0F0"/>
<path d="M513.726 70.771H519.635V76.3613H513.726V70.771Z" fill="#EFF0F0"/>
<path d="M482.818 -21H488.726V-15.4097H482.818V-21Z" fill="#EFF0F0"/>
<path d="M482.818 9.59033H488.726V15.1807H482.818V9.59033Z" fill="#EFF0F0"/>
<path d="M482.818 40.1807H488.726V45.771H482.818V40.1807Z" fill="#EFF0F0"/>
<path d="M482.818 70.771H488.726V76.3613H482.818V70.771Z" fill="#EFF0F0"/>
<path d="M451.909 -21H457.818V-15.4097H451.909V-21Z" fill="#EFF0F0"/>
<path d="M451.909 9.59033H457.818V15.1807H451.909V9.59033Z" fill="#EFF0F0"/>
<path d="M451.909 40.1807H457.818V45.771H451.909V40.1807Z" fill="#EFF0F0"/>
<path d="M451.909 70.771H457.818V76.3613H451.909V70.771Z" fill="#EFF0F0"/>
<path d="M421 -21H426.909V-15.4097H421V-21Z" fill="#EFF0F0"/>
<path d="M421 9.59033H426.909V15.1807H421V9.59033Z" fill="#EFF0F0"/>
<path d="M421 40.1807H426.909V45.771H421V40.1807Z" fill="#EFF0F0"/>
<path d="M421 70.771H426.909V76.3613H421V70.771Z" fill="#EFF0F0"/>
<ellipse opacity="0.1" cx="1323" cy="-37" rx="264" ry="265" fill="#329FBA"/>
<g clip-path="url(#clip1)">
<circle cx="9.9794" cy="369.207" r="4.39252" transform="rotate(-75 9.9794 369.207)" stroke="#ADB5BD" stroke-width="0.381958"/>
<circle cx="23.4837" cy="392.597" r="4.39252" transform="rotate(-75 23.4837 392.597)" stroke="#ADB5BD" stroke-width="0.381958"/>
<circle cx="46.8737" cy="379.092" r="4.39252" transform="rotate(-75 46.8737 379.092)" stroke="#ADB5BD" stroke-width="0.381958"/>
<circle cx="60.378" cy="402.483" r="4.39252" transform="rotate(-75 60.378 402.483)" stroke="#ADB5BD" stroke-width="0.381958"/>
<circle cx="83.7681" cy="388.978" r="4.39252" transform="rotate(-75 83.7681 388.978)" stroke="#ADB5BD" stroke-width="0.381958"/>
<circle cx="6.36099" cy="308.922" r="4.39252" transform="rotate(-75 6.36099 308.922)" stroke="#ADB5BD" stroke-width="0.381958"/>
<circle cx="29.7511" cy="295.418" r="4.39252" transform="rotate(-75 29.7511 295.418)" stroke="#ADB5BD" stroke-width="0.381958"/>
<circle cx="43.2553" cy="318.808" r="4.39252" transform="rotate(-75 43.2553 318.808)" stroke="#ADB5BD" stroke-width="0.381958"/>
<circle cx="66.6454" cy="305.304" r="4.39252" transform="rotate(-75 66.6454 305.304)" stroke="#ADB5BD" stroke-width="0.381958"/>
<circle cx="80.1496" cy="328.694" r="4.39252" transform="rotate(-75 80.1496 328.694)" stroke="#ADB5BD" stroke-width="0.381958"/>
<circle cx="103.54" cy="315.19" r="4.39252" transform="rotate(-75 103.54 315.19)" stroke="#ADB5BD" stroke-width="0.381958"/>
<circle cx="-3.52481" cy="345.817" r="4.39252" transform="rotate(-75 -3.52481 345.817)" stroke="#ADB5BD" stroke-width="0.381958"/>
<circle cx="19.8653" cy="332.312" r="4.39252" transform="rotate(-75 19.8653 332.312)" stroke="#ADB5BD" stroke-width="0.381958"/>
<circle cx="33.3695" cy="355.702" r="4.39252" transform="rotate(-75 33.3695 355.702)" stroke="#ADB5BD" stroke-width="0.381958"/>
<circle cx="56.7596" cy="342.198" r="4.39252" transform="rotate(-75 56.7596 342.198)" stroke="#ADB5BD" stroke-width="0.381958"/>
<circle cx="70.2638" cy="365.588" r="4.39252" transform="rotate(-75 70.2638 365.588)" stroke="#ADB5BD" stroke-width="0.381958"/>
<circle cx="93.6539" cy="352.084" r="4.39252" transform="rotate(-75 93.6539 352.084)" stroke="#ADB5BD" stroke-width="0.381958"/>
<circle cx="2.74258" cy="248.638" r="4.39252" transform="rotate(-75 2.74258 248.638)" stroke="#ADB5BD" stroke-width="0.381958"/>
<circle cx="16.2468" cy="272.028" r="4.39252" transform="rotate(-75 16.2468 272.028)" stroke="#ADB5BD" stroke-width="0.381958"/>
<circle cx="39.6369" cy="258.524" r="4.39252" transform="rotate(-75 39.6369 258.524)" stroke="#ADB5BD" stroke-width="0.381958"/>
<circle cx="53.1411" cy="281.914" r="4.39252" transform="rotate(-75 53.1411 281.914)" stroke="#ADB5BD" stroke-width="0.381958"/>
<circle cx="76.5312" cy="268.409" r="4.39252" transform="rotate(-75 76.5312 268.409)" stroke="#ADB5BD" stroke-width="0.381958"/>
<circle cx="90.0354" cy="291.8" r="4.39252" transform="rotate(-75 90.0354 291.8)" stroke="#ADB5BD" stroke-width="0.381958"/>
<circle cx="113.426" cy="278.295" r="4.39252" transform="rotate(-75 113.426 278.295)" stroke="#ADB5BD" stroke-width="0.381958"/>
</g>
</g>
<defs>
<clipPath id="clip0">
<rect width="1587" height="419" fill="white"/>
</clipPath>
<clipPath id="clip1">
<rect x="-62" y="379.577" width="152.783" height="152.783" rx="76.3916" transform="rotate(-75 -62 379.577)" fill="white"/>
</clipPath>
</defs>
</svg>
