<svg width="375" height="1727" viewBox="0 0 375 1727" fill="none" xmlns="http://www.w3.org/2000/svg">
<g clip-path="url(#clip0)">
<rect width="375" height="1727" rx="16" fill="#DC1D54"/>
<mask id="mask0" style="mask-type:alpha" maskUnits="userSpaceOnUse" x="0" y="0" width="375" height="1727">
<rect width="375" height="1727" rx="16" fill="#DC1D54"/>
</mask>
<g mask="url(#mask0)">
<path d="M535.434 1056.16C684.11 1056.16 763.977 914.72 785.326 844H831V1742H209.42C267.693 1742 361.14 1611.24 361.14 1492.03C361.14 1372.82 243.543 1340.26 243.543 1237.86C243.543 1135.46 349.59 1056.16 535.434 1056.16Z" fill="#6EC1D5"/>
<path d="M-296.009 1004.53C-394.409 1010.53 -411.343 924.032 -407.509 880.032C-391.009 793.532 -285.009 822.032 -222.009 822.032C-159.009 822.032 -164.009 730.032 -83.0093 732.032C-2.00928 734.032 33.9907 780.532 73.9907 894.532C113.991 1008.53 -47.0093 1051.03 -83.0093 1022.53C-119.009 994.032 -173.009 997.032 -296.009 1004.53Z" fill="#6EC1D5"/>
<path opacity="0.2" d="M-329.5 542.222C-329.5 669.644 -424.5 707.833 -472 711H-507V-39H153V162.192C153 328.735 -110.5 289.614 -222 289.614C-333.5 289.614 -329.5 382.945 -329.5 542.222Z" fill="#F6C0C5"/>
</g>
<circle cx="371" cy="1065" r="33" fill="#357E3E"/>
<circle cx="404" cy="975" r="33" fill="#357E3E"/>
<circle cx="305" cy="1000" r="33" fill="#357E3E"/>
<path d="M327.146 165.569C373.005 179.007 472.962 232.497 505.917 338.952" stroke="#F0C310" stroke-width="30" stroke-linecap="round" stroke-linejoin="round"/>
</g>
<defs>
<clipPath id="clip0">
<rect width="375" height="1727" fill="white"/>
</clipPath>
</defs>
</svg>
