<svg width="375" height="1727" viewBox="0 0 375 1727" fill="none" xmlns="http://www.w3.org/2000/svg">
<rect width="375" height="1727" rx="16" fill="#DC1D54"/>
<mask id="mask0" style="mask-type:alpha" maskUnits="userSpaceOnUse" x="0" y="0" width="375" height="1727">
<rect width="375" height="1727" rx="16" fill="#DC1D54"/>
</mask>
<g mask="url(#mask0)">
<path d="M535.434 1056.16C684.11 1056.16 763.977 914.72 785.326 844H831V1742H209.42C267.693 1742 361.14 1611.24 361.14 1492.03C361.14 1372.82 243.543 1340.26 243.543 1237.86C243.543 1135.46 349.59 1056.16 535.434 1056.16Z" fill="#6EC1D5"/>
<path d="M-296.009 1004.53C-394.409 1010.53 -411.343 924.032 -407.509 880.032C-391.009 793.532 -285.009 822.032 -222.009 822.032C-159.009 822.032 -164.009 730.032 -83.0093 732.032C-2.00928 734.032 33.9907 780.532 73.9907 894.532C113.991 1008.53 -47.0093 1051.03 -83.0093 1022.53C-119.009 994.032 -173.009 997.032 -296.009 1004.53Z" fill="#6EC1D5"/>
<path opacity="0.2" d="M-329.5 560C-329.5 674 -424.5 708.167 -472 711H-507V40H153V220C153 369 -110.5 334 -222 334C-333.5 334 -329.5 417.5 -329.5 560Z" fill="#F6C0C5"/>
</g>
</svg>
