<svg width="676" height="906" viewBox="0 0 676 906" fill="none" xmlns="http://www.w3.org/2000/svg">
<path d="M245.5 3.99997H599.5C624 1.83331 673 15.3 673 86.5C673 157.7 673 247.833 673 284V364C673 422.5 651.7 430 542.5 430C433.3 430 387.333 430 378 430C344.5 430 312 420 312 364C312 300 312 260.667 312 249C312 211.5 287 204 216.5 204C127.7 204 68.5 204 50 204C31.5 204 3.5 220.5 3.5 261.5C3.5 319.5 3.5 491.667 3.5 570.5C3.49997 598 5.5 622 75.5 622C145.5 622 298 622 365.5 622H649V743.5V820C649 845.5 647.9 875.5 593.5 875.5C539.1 875.5 366.167 875.5 286.5 875.5" stroke="#6EC1D5" stroke-width="6" stroke-linecap="round" stroke-linejoin="round" stroke-dasharray="12 12"/>
<path d="M313 854L269 898" stroke="#E8AE29" stroke-width="16" stroke-linecap="round" stroke-linejoin="round"/>
<path d="M269 854L313 898" stroke="#E8AE29" stroke-width="16" stroke-linecap="round" stroke-linejoin="round"/>
</svg>
