<svg width="1440" height="1389" viewBox="0 0 1440 1389" fill="none" xmlns="http://www.w3.org/2000/svg">
<rect width="1440" height="1389" rx="24" fill="#DC1D54"/>
<mask id="mask0" style="mask-type:alpha" maskUnits="userSpaceOnUse" x="0" y="0" width="1440" height="1389">
<path d="M0 24C0 10.7452 10.7452 0 24 0H1416C1429.25 0 1440 10.7452 1440 24V1365C1440 1378.25 1429.25 1389 1416 1389H24C10.7451 1389 0 1378.25 0 1365V24Z" fill="#DC1D54"/>
</mask>
<g mask="url(#mask0)">
<path d="M1242.43 818.159C1391.11 818.159 1470.98 676.72 1492.33 606H1538V1504H916.42C974.693 1504 1068.14 1373.24 1068.14 1254.03C1068.14 1134.82 950.543 1102.26 950.543 999.86C950.543 897.456 1056.59 818.159 1242.43 818.159Z" fill="#6EC1D5"/>
<path d="M280.991 976.532C182.591 982.532 165.657 896.032 169.491 852.032C185.991 765.532 291.991 794.032 354.991 794.032C417.991 794.032 412.991 702.032 493.991 704.032C574.991 706.032 610.991 752.532 650.991 866.532C690.991 980.532 529.991 1023.03 493.991 994.532C457.991 966.032 403.991 969.032 280.991 976.532Z" fill="#6EC1D5"/>
<path opacity="0.2" d="M147.5 532C147.5 646 52.5 680.167 5 683H-30V12H630V192C630 341 366.5 306 255 306C143.5 306 147.5 389.5 147.5 532Z" fill="#F6C0C5"/>
</g>
<circle cx="1333" cy="784" r="33" fill="#357E3E"/>
<circle cx="1366" cy="694" r="33" fill="#357E3E"/>
<circle cx="1267" cy="713" r="33" fill="#357E3E"/>
<circle cx="1300" cy="623" r="33" fill="#357E3E"/>
<circle cx="1201" cy="648" r="33" fill="#357E3E"/>
<path d="M1103.15 159.569C1149.01 173.007 1248.96 226.497 1281.92 332.952" stroke="#F0C310" stroke-width="30" stroke-linecap="round" stroke-linejoin="round"/>
</svg>
