<svg width="1260" height="162" viewBox="0 0 1260 162" fill="none" xmlns="http://www.w3.org/2000/svg">
<rect width="1260" height="162" rx="20" fill="#C11345"/>
<mask id="mask0" style="mask-type:alpha" maskUnits="userSpaceOnUse" x="0" y="0" width="1260" height="162">
<rect width="1260" height="162" rx="20" fill="#DC1D54"/>
</mask>
<g mask="url(#mask0)">
<g opacity="0.15">
<g clip-path="url(#clip0)">
<path d="M630.5 67L-112 -675.5H2.2262C268.447 -375.322 477.872 -127.822 630.5 67Z" fill="#DC1D54"/>
<path d="M630.5 67C502.463 -144.801 331.119 -392.301 116.467 -675.5H230.693C395.647 -406.22 528.916 -158.72 630.5 67Z" fill="#DC1D54"/>
<path d="M630.5 67C556.874 -169.293 461.68 -416.793 344.92 -675.5H459.161C528.778 -423.941 585.891 -176.441 630.5 67Z" fill="#DC1D54"/>
<path d="M630.5 67C615.561 -180.045 596.523 -427.545 573.387 -675.5H687.613C664.477 -427.545 645.439 -180.045 630.5 67Z" fill="#DC1D54"/>
<path d="M630.5 67C675.109 -176.451 732.222 -423.951 801.839 -675.5H916.08C799.33 -416.793 704.136 -169.293 630.5 67Z" fill="#DC1D54"/>
<path d="M630.5 67C732.074 -158.72 865.343 -406.22 1030.31 -675.5H1144.53C929.891 -392.36 758.547 -144.86 630.5 67Z" fill="#DC1D54"/>
<path d="M630.5 67C783.138 -127.832 992.563 -375.332 1258.77 -675.5H1373L630.5 67Z" fill="#DC1D54"/>
<path d="M630.5 67C825.332 -85.6481 1072.83 -295.073 1373 -561.274V-447.033C1089.81 -232.391 842.311 -61.0466 630.5 67Z" fill="#DC1D54"/>
<path d="M630.5 67C856.22 -34.574 1103.72 -167.843 1373 -332.807V-218.58C1114.3 -101.83 866.803 -6.6362 630.5 67Z" fill="#DC1D54"/>
<path d="M630.5 67C873.951 22.3906 1121.45 -34.7225 1373 -104.339V9.88689C1125.05 33.0232 877.555 52.0609 630.5 67Z" fill="#DC1D54"/>
<path d="M630.5 67C877.545 81.9391 1125.04 100.977 1373 124.113V238.339C1121.44 168.722 873.941 111.609 630.5 67Z" fill="#DC1D54"/>
<path d="M630.5 67C866.793 140.626 1114.29 235.82 1373 352.58V466.807C1103.72 301.853 856.22 168.584 630.5 67Z" fill="#DC1D54"/>
<path d="M630.5 67C842.301 195.037 1089.8 366.381 1373 581.033V695.274C1072.82 429.053 825.322 219.628 630.5 67Z" fill="#DC1D54"/>
<path d="M630.5 67L1373 809.5H1258.77C992.553 509.322 783.128 261.822 630.5 67Z" fill="#DC1D54"/>
<path d="M630.5 67C758.537 278.801 929.881 526.301 1144.53 809.5H1030.31C865.353 540.22 732.084 292.72 630.5 67Z" fill="#DC1D54"/>
<path d="M630.5 67C704.126 303.293 799.32 550.793 916.08 809.5H801.839C732.222 557.941 675.109 310.441 630.5 67Z" fill="#DC1D54"/>
<path d="M630.5 67C645.439 314.045 664.477 561.545 687.613 809.5H573.387C596.523 561.555 615.561 314.055 630.5 67Z" fill="#DC1D54"/>
<path d="M630.5 67C585.891 310.451 528.778 557.951 459.161 809.5H344.92C461.67 550.803 556.864 303.303 630.5 67Z" fill="#DC1D54"/>
<path d="M630.5 67C528.926 292.72 395.657 540.22 230.693 809.5H116.467C331.109 526.311 502.453 278.811 630.5 67Z" fill="#DC1D54"/>
<path d="M630.5 67C477.852 261.832 268.427 509.332 2.2262 809.5H-112L630.5 67Z" fill="#DC1D54"/>
<path d="M630.5 67C435.668 219.638 188.168 429.063 -112 695.274V581.033C171.14 366.391 418.64 195.047 630.5 67Z" fill="#DC1D54"/>
<path d="M630.5 67C404.78 168.574 157.28 301.843 -112 466.807V352.58C146.707 235.83 394.207 140.636 630.5 67Z" fill="#DC1D54"/>
<path d="M630.5 67C387.049 111.609 139.549 168.722 -112 238.339V124.113C135.955 100.977 383.455 81.9391 630.5 67Z" fill="#DC1D54"/>
<path d="M630.5 67C383.455 52.0609 135.955 33.0232 -112 9.88689V-104.339C139.559 -34.7225 387.059 22.3906 630.5 67Z" fill="#DC1D54"/>
<path d="M630.5 67C394.207 -6.62631 146.707 -101.82 -112 -218.58V-332.807C157.28 -167.853 404.78 -34.5839 630.5 67Z" fill="#DC1D54"/>
<path d="M630.5 67C418.699 -61.0367 171.199 -232.381 -112 -447.033V-561.274C188.178 -295.053 435.678 -85.6283 630.5 67Z" fill="#DC1D54"/>
</g>
</g>
</g>
<defs>
<clipPath id="clip0">
<rect width="1260" height="162" rx="20" fill="white"/>
</clipPath>
</defs>
</svg>
