<svg width="71" height="71" viewBox="0 0 71 71" fill="none" xmlns="http://www.w3.org/2000/svg">
<circle cx="35.5" cy="35.5" r="35.5" fill="#E8AE29"/>
<path fill-rule="evenodd" clip-rule="evenodd" d="M38.3919 26.9513C36.8067 26.5718 35.1613 26.5718 33.576 26.9513L33.3158 27.0136C30.4928 27.6894 28.2376 29.9995 27.542 33.0256C27.1504 34.7292 27.1536 36.5259 27.5459 38.2328C28.2687 41.3773 30.3888 43.9649 33.1893 45.1622L33.3272 45.2211C34.0442 45.5277 34.9397 45.1837 35.2802 44.3136C35.5974 43.5024 36.3761 42.9146 37.2958 42.9146H38.5341C41.3219 42.9146 43.8081 40.9035 44.4853 37.9578C44.8382 36.4219 44.8382 34.8193 44.4853 33.2834L44.3816 32.8324C43.7132 29.9247 41.5467 27.7065 38.8365 27.0577L38.3919 26.9513ZM33.0328 24.6821C34.9752 24.2171 36.9928 24.2171 38.9351 24.6821L39.3797 24.7885C42.9998 25.655 45.8001 28.5877 46.6556 32.3097L46.7592 32.7607C47.1914 34.6405 47.1914 36.6006 46.7592 38.4805C45.8553 42.413 42.4821 45.248 38.5341 45.248H37.419C36.6069 47.1947 34.4017 48.2182 32.4099 47.3666L32.2721 47.3077C28.7472 45.8007 26.1521 42.5846 25.2719 38.7555C24.8012 36.7077 24.7966 34.5537 25.268 32.5029C26.1507 28.6625 29.0397 25.6379 32.7726 24.7444L33.0328 24.6821ZM30.979 32.5676C30.979 31.9233 31.5013 31.401 32.1457 31.401H39.1825C39.8269 31.401 40.3492 31.9233 40.3492 32.5676C40.3492 33.212 39.8269 33.7343 39.1825 33.7343H32.1457C31.5013 33.7343 30.979 33.212 30.979 32.5676ZM30.979 36.5998C30.979 35.9555 31.5013 35.4332 32.1457 35.4332H36.6237C37.268 35.4332 37.7904 35.9555 37.7904 36.5998C37.7904 37.2442 37.268 37.7665 36.6237 37.7665H32.1457C31.5013 37.7665 30.979 37.2442 30.979 36.5998Z" fill="white"/>
</svg>
