<svg width="16" height="16" viewBox="0 0 16 16" fill="none" xmlns="http://www.w3.org/2000/svg">
<path d="M11.5844 0H4.4153C1.98071 0 0 1.9808 0 4.4154V11.5845C0 14.0192 1.98071 15.9999 4.4153 15.9999H11.5844C14.0192 15.9999 15.9999 14.0191 15.9999 11.5845V4.4154C16 1.9808 14.0192 0 11.5844 0ZM14.5804 11.5845C14.5804 13.2364 13.2364 14.5803 11.5845 14.5803H4.4153C2.76347 14.5804 1.41959 13.2364 1.41959 11.5845V4.4154C1.41959 2.76356 2.76347 1.41959 4.4153 1.41959H11.5844C13.2363 1.41959 14.5803 2.76356 14.5803 4.4154V11.5845H14.5804Z" fill="white"/>
<path d="M7.99972 3.87744C5.72639 3.87744 3.87695 5.72688 3.87695 8.00021C3.87695 10.2734 5.72639 12.1228 7.99972 12.1228C10.2731 12.1228 12.1225 10.2734 12.1225 8.00021C12.1225 5.72688 10.2731 3.87744 7.99972 3.87744ZM7.99972 10.7031C6.50925 10.7031 5.29654 9.49059 5.29654 8.00012C5.29654 6.50955 6.50916 5.29694 7.99972 5.29694C9.49029 5.29694 10.7029 6.50955 10.7029 8.00012C10.7029 9.49059 9.4902 10.7031 7.99972 10.7031Z" fill="white"/>
<path d="M12.2954 2.67358C12.0219 2.67358 11.7532 2.78431 11.5601 2.97832C11.366 3.17139 11.2544 3.44016 11.2544 3.71462C11.2544 3.98822 11.3661 4.2569 11.5601 4.45091C11.7531 4.64397 12.0219 4.75565 12.2954 4.75565C12.5699 4.75565 12.8377 4.64397 13.0317 4.45091C13.2257 4.2569 13.3365 3.98812 13.3365 3.71462C13.3365 3.44016 13.2257 3.17139 13.0317 2.97832C12.8387 2.78431 12.5699 2.67358 12.2954 2.67358Z" fill="white"/>
</svg>
